<?xml version="1.0" encoding="UTF-8" standalone="no"?>
<svg
   width="2048"
   height="2048"
   viewBox="0 0 541.86665 541.86668"
   version="1.1"
   id="svg8"
   inkscape:version="1.2.1 (9c6d41e410, 2022-07-14, custom)"
   sodipodi:docname="patch.svg"
   xmlns:inkscape="http://www.inkscape.org/namespaces/inkscape"
   xmlns:sodipodi="http://sodipodi.sourceforge.net/DTD/sodipodi-0.dtd"
   xmlns="http://www.w3.org/2000/svg"
   xmlns:svg="http://www.w3.org/2000/svg"
   xmlns:rdf="http://www.w3.org/1999/02/22-rdf-syntax-ns#"
   xmlns:cc="http://creativecommons.org/ns#"
   xmlns:dc="http://purl.org/dc/elements/1.1/">
  <defs
     id="defs2" />
  <sodipodi:namedview
     id="base"
     pagecolor="#ffffff"
     bordercolor="#666666"
     borderopacity="1.0"
     inkscape:pageopacity="0.0"
     inkscape:pageshadow="2"
     inkscape:zoom="0.49497475"
     inkscape:cx="1365.7262"
     inkscape:cy="605.08137"
     inkscape:document-units="mm"
     inkscape:current-layer="layer1"
     inkscape:document-rotation="0"
     showgrid="false"
     units="px"
     inkscape:window-width="3832"
     inkscape:window-height="2042"
     inkscape:window-x="3840"
     inkscape:window-y="114"
     inkscape:window-maximized="0"
     inkscape:snap-text-baseline="true"
     showguides="true"
     inkscape:guide-bbox="true"
     inkscape:showpageshadow="0"
     inkscape:pagecheckerboard="1"
     inkscape:deskcolor="#d1d1d1">
    <sodipodi:guide
       position="-18.559931,100.54311"
       orientation="0,-1"
       id="guide14"
       inkscape:locked="false" />
    <sodipodi:guide
       position="499.79401,323.77474"
       orientation="0,-1"
       id="guide44"
       inkscape:locked="false" />
    <sodipodi:guide
       position="559.12783,188.53636"
       orientation="0,-1"
       id="guide467"
       inkscape:locked="false" />
  </sodipodi:namedview>
  <metadata
     id="metadata5">
    <rdf:RDF>
      <cc:Work
         rdf:about="">
        <dc:format>image/svg+xml</dc:format>
        <dc:type
           rdf:resource="http://purl.org/dc/dcmitype/StillImage" />
        <dc:title />
        <dc:creator>
          <cc:Agent>
            <dc:title>L3D &lt;l3d@c3woc.de&gt;</dc:title>
          </cc:Agent>
        </dc:creator>
        <cc:license
           rdf:resource="http://creativecommons.org/licenses/by-sa/4.0/" />
      </cc:Work>
      <cc:License
         rdf:about="http://creativecommons.org/licenses/by-sa/4.0/">
        <cc:permits
           rdf:resource="http://creativecommons.org/ns#Reproduction" />
        <cc:permits
           rdf:resource="http://creativecommons.org/ns#Distribution" />
        <cc:requires
           rdf:resource="http://creativecommons.org/ns#Notice" />
        <cc:requires
           rdf:resource="http://creativecommons.org/ns#Attribution" />
        <cc:permits
           rdf:resource="http://creativecommons.org/ns#DerivativeWorks" />
        <cc:requires
           rdf:resource="http://creativecommons.org/ns#ShareAlike" />
      </cc:License>
    </rdf:RDF>
  </metadata>
  <g
     inkscape:label="Layer 1"
     inkscape:groupmode="layer"
     id="layer1">
    <g
       id="path28">
      <path
         style="color:#000000;fill:#ffffff;fill-rule:evenodd;stroke-width:5.29167;-inkscape-stroke:none"
         d="M 535.51666,271.4325 A 264.58334,264.58334 0 0 1 270.93332,536.01584 264.58334,264.58334 0 0 1 6.3499756,271.4325 264.58334,264.58334 0 0 1 270.93332,6.8491516 264.58334,264.58334 0 0 1 535.51666,271.4325 Z"
         id="path919" />
      <path
         style="color:#000000;fill:#e60005;fill-rule:evenodd;-inkscape-stroke:none"
         d="M 270.93359,4.203125 C 123.37848,4.2031225 3.7050734,123.87652 3.7050781,271.43164 c 0,147.55511 119.6734019,267.23047 267.2285119,267.23047 147.55512,0 267.22852,-119.67536 267.22852,-267.23047 0,-147.55511 -119.6734,-267.228515 -267.22852,-267.228515 z m 0,5.2910156 c 144.69529,0 261.93751,117.2422094 261.9375,261.9374994 0,144.69528 -117.24221,261.9375 -261.9375,261.9375 C 126.23831,533.36914 8.9960938,416.12693 8.9960938,271.43164 8.9960892,126.73635 126.23831,9.4941382 270.93359,9.4941406 Z"
         id="path921" />
    </g>
    <circle
       style="fill:#ffffff;fill-rule:evenodd;stroke-width:0.264583"
       id="circle30"
       cx="270.93332"
       cy="271.4325"
       r="206.375" />
    <g
       id="circle855">
      <path
         style="color:#000000;fill:#ffffff;fill-rule:evenodd;stroke-width:5.29167;-inkscape-stroke:none"
         d="M 477.30832,271.4325 A 206.375,206.375 0 0 1 270.93332,477.8075 206.375,206.375 0 0 1 64.558319,271.4325 206.375,206.375 0 0 1 270.93332,65.057495 206.375,206.375 0 0 1 477.30832,271.4325 Z"
         id="path912" />
      <path
         style="color:#000000;fill:#e60005;fill-rule:evenodd;-inkscape-stroke:none"
         d="m 270.93359,62.412109 c -115.40756,0 -209.021483,93.611961 -209.021481,209.019531 0,115.40757 93.613921,209.02149 209.021481,209.02148 115.40757,0 209.02149,-93.61391 209.02149,-209.02148 0,-115.40757 -93.61392,-209.019531 -209.02149,-209.019531 z m 0,5.291016 c 112.54774,0 203.72852,91.180775 203.72852,203.728515 0,112.54774 -91.18078,203.73047 -203.72852,203.73047 -112.54773,0 -203.728512,-91.18273 -203.728512,-203.73047 C 67.205075,158.8839 158.38585,67.703124 270.93359,67.703125 Z"
         id="path914" />
    </g>
    <circle
       style="fill:none;fill-rule:evenodd;stroke:none;stroke-width:0.266429"
       id="circle857"
       cx="-327.48428"
       cy="-199.58585"
       r="218.47232"
       transform="rotate(-166.30756)" />
    <g
       aria-label="Phy­si­ci­an As­sis­tant B.Sc."
       id="text861"
       style="font-size:50.0944px;line-height:1.25;stroke-width:0.264583">
      <path
         d="m 59.368157,215.64189 -33.282504,-10.7186 4.821834,-14.97236 q 0.737096,-2.28877 2.083552,-3.85501 1.314131,-1.62929 3.111545,-2.47139 1.749731,-0.85746 3.872024,-0.91077 2.122293,-0.0533 4.411061,0.68378 2.336451,0.75246 4.028771,2.03426 1.644638,1.26645 2.61282,2.99921 0.920498,1.7174 1.08453,3.82273 0.131706,2.04228 -0.605389,4.33105 l -2.794822,8.67824 12.683591,4.08474 z m -16.092402,-12.12946 2.610547,-8.10605 q 0.583534,-1.81194 -0.03228,-3.16809 -0.663501,-1.37149 -2.475443,-1.95503 l -2.193402,-0.70638 q -1.811942,-0.58354 -3.103431,0.15836 -1.291489,0.7419 -1.875023,2.55384 l -2.610547,8.10605 z"
         style="font-weight:600;font-family:'IBM Plex Sans Thai Looped';-inkscape-font-specification:'IBM Plex Sans Thai Looped Semi-Bold'"
         id="path573" />
      <path
         d="m 36.324943,169.46862 2.797637,-5.76958 13.747824,6.66625 0.109282,-0.22538 q -1.543438,-1.63917 -2.062411,-3.7837 -0.542191,-2.21146 0.791058,-4.96102 1.770379,-3.65106 5.099177,-4.43088 3.328797,-0.77982 7.74613,1.36212 l 14.874695,7.21265 -2.797637,5.76958 -14.288722,-6.92852 q -2.52419,-1.22397 -4.223416,-0.93445 -1.699226,0.28951 -2.704627,2.36295 -0.437131,0.9015 -0.581956,1.88906 -0.168044,0.92063 -6.9e-5,1.83717 0.144757,0.84962 0.669246,1.605 0.479413,0.73352 1.425985,1.1925 l 15.550817,7.54051 -2.797637,5.76958 z"
         style="font-weight:600;font-family:'IBM Plex Sans Thai Looped';-inkscape-font-specification:'IBM Plex Sans Thai Looped Semi-Bold'"
         id="path570" />
      <path
         d="m 69.72848,132.03411 3.284513,-5.03469 20.054858,25.64382 q 0.901051,1.18595 1.384342,2.27879 0.552619,1.07826 0.632737,2.14733 0.08012,1.06907 -0.32505,2.24023 -0.405168,1.17116 -1.281038,2.51374 l -2.107562,3.23059 -4.279481,-2.79183 2.572867,-3.94384 -2.405863,-3.00501 -28.068132,-7.12619 3.476108,-5.32837 14.070528,3.73641 6.468764,2.18647 0.164226,-0.25174 -4.552799,-5.12337 z"
         style="font-weight:600;font-family:'IBM Plex Sans Thai Looped';-inkscape-font-specification:'IBM Plex Sans Thai Looped Semi-Bold'"
         id="path567" />
      <path
         d="m 103.32926,132.1548 q -2.40631,2.88536 -5.004385,4.04531 -2.636549,1.12786 -5.619048,1.18446 l -0.421276,-5.43917 q 2.2,-0.0569 4.021819,-0.75533 1.853903,-0.73691 3.297688,-2.46813 1.475872,-1.76969 1.502002,-3.05246 0.0582,-1.32125 -1.01898,-2.21961 -0.884842,-0.73793 -1.866233,-0.57795 -0.987779,0.0894 -2.303081,1.27551 l -1.937674,1.77593 q -3.150336,2.91715 -6.017568,3.46126 -2.873619,0.47355 -5.643569,-1.83651 -1.461918,-1.21919 -2.166887,-2.72032 -0.74344,-1.53321 -0.717155,-3.20723 -0.01219,-1.70611 0.719655,-3.44401 0.725453,-1.80846 2.169238,-3.53968 1.219197,-1.46192 2.380465,-2.38509 1.154881,-0.99372 2.348086,-1.56411 1.154734,-0.60248 2.411961,-0.85856 1.218755,-0.28817 2.559312,-0.40953 l 0.479057,5.29167 q -1.661251,0.11483 -3.303487,0.83257 -1.642237,0.71774 -2.861433,2.17966 -1.347532,1.61581 -1.380058,2.82803 -4.41e-4,1.17375 0.922876,1.94376 1.00026,0.83419 2.020123,0.7063 1.013476,-0.19846 2.431417,-1.4294 l 1.969759,-1.8144 q 6.345531,-5.73167 11.346826,-1.56073 1.46192,1.21919 2.17967,2.86143 0.71135,1.57168 0.69784,3.38682 -0.052,1.78305 -0.83522,3.739 -0.78962,1.8854 -2.36174,3.77051 z"
         style="font-weight:600;font-family:'IBM Plex Sans Thai Looped';-inkscape-font-specification:'IBM Plex Sans Thai Looped Semi-Bold'"
         id="path564" />
      <path
         d="m 94.883739,96.106071 q -1.415141,1.418624 -2.690335,1.420192 -1.239816,-0.0339 -2.232853,-1.024496 l -0.709312,-0.707571 q -0.993037,-0.990598 -1.029983,-2.230327 -0.0016,-1.275194 1.413573,-2.693818 1.379762,-1.383159 2.654956,-1.384727 1.275195,-0.0016 2.268232,0.989031 l 0.709312,0.70757 q 0.993037,0.990599 0.994604,2.265793 0.0016,1.275194 -1.378194,2.658353 z m 0.431161,4.958569 4.52845,-4.539601 18.51305,18.467581 -4.52845,4.5396 z"
         style="font-weight:600;font-family:'IBM Plex Sans Thai Looped';-inkscape-font-specification:'IBM Plex Sans Thai Looped Semi-Bold'"
         id="path561" />
      <path
         d="m 131.95046,103.62655 q -2.22906,1.86363 -4.569,2.57933 -2.33993,0.71571 -4.68806,0.32823 -2.30969,-0.41961 -4.53117,-1.82711 -2.25362,-1.44593 -4.2779,-3.86714 -2.02428,-2.42122 -3.01594,-4.856924 -0.99166,-2.435704 -0.9633,-4.744767 0.0347,-2.379627 1.15361,-4.55575 1.11894,-2.176123 3.348,-4.039746 3.03612,-2.538383 6.12076,-2.831966 3.12306,-0.325714 5.99915,1.318048 l -2.52519,5.180106 q -1.40622,-0.979074 -3.04178,-0.982861 -1.62926,-0.07435 -3.24341,1.275171 -2.07533,1.735097 -2.02052,3.909334 0.0932,2.142106 1.86046,4.255867 l 3.05249,3.651041 q 1.76723,2.113757 3.85893,2.585037 2.098,0.4007 4.17333,-1.334394 1.76787,-1.478046 1.98965,-3.165268 0.18965,-1.725655 -0.39691,-3.520615 l 5.27652,-1.342576 q 1.21784,3.487226 0.30554,6.535313 -0.94443,3.00965 -3.86526,5.45164 z"
         style="font-weight:600;font-family:'IBM Plex Sans Thai Looped';-inkscape-font-specification:'IBM Plex Sans Thai Looped Semi-Bold'"
         id="path558" />
      <path
         d="m 129.30309,67.327263 q -1.64662,1.141823 -2.90142,0.914663 -1.21364,-0.255705 -2.01291,-1.408339 l -0.57091,-0.82331 q -0.79928,-1.152635 -0.61329,-2.378889 0.22716,-1.254799 1.87378,-2.396621 1.60546,-1.113277 2.86026,-0.886118 1.2548,0.227159 2.05407,1.379794 l 0.57091,0.82331 q 0.79928,1.152635 0.57212,2.407434 -0.22716,1.254799 -1.83261,2.368076 z m -0.46513,4.955495 5.26918,-3.653831 14.90078,21.4884 -5.26918,3.653831 z"
         style="font-weight:600;font-family:'IBM Plex Sans Thai Looped';-inkscape-font-specification:'IBM Plex Sans Thai Looped Semi-Bold'"
         id="path555" />
      <path
         d="m 171.89949,76.487319 q -1.83504,1.029225 -3.51545,0.593266 -1.66123,-0.504156 -2.92809,-2.148471 l -0.26215,0.147032 q 0.68178,2.54683 -0.42873,4.66302 -1.13502,2.072498 -3.71282,3.518314 -3.49531,1.960428 -6.40326,1.17912 -2.90795,-0.781308 -4.62333,-3.839704 -1.98493,-3.539002 -0.40654,-6.664276 1.55388,-3.168965 6.22886,-5.791038 l 3.88854,-2.180976 -0.93121,-1.660272 q -1.07823,-1.922421 -2.67126,-2.407391 -1.59303,-0.48497 -3.82129,0.764803 -1.96612,1.102741 -2.69937,2.662718 -0.71406,1.491781 -0.88256,3.137049 l -4.9869,-1.108607 q 0.16431,-2.676767 1.59985,-5.032691 1.41103,-2.399615 4.86265,-4.335538 4.63129,-2.597567 8.21057,-1.848175 3.57928,0.749392 5.78477,4.681616 l 6.02831,10.748079 2.27195,-1.274278 2.49955,4.45652 z m -11.2475,1.656133 q 1.87872,-1.05373 2.72386,-2.619027 0.84514,-1.565297 -0.0616,-3.181878 l -1.69087,-3.014705 -3.5827,2.009439 q -4.36913,2.450535 -2.80079,5.246783 l 0.41659,0.742754 q 0.78417,1.398124 2.05008,1.607079 1.2851,0.140758 2.94538,-0.790445 z"
         style="font-weight:600;font-family:'IBM Plex Sans Thai Looped';-inkscape-font-specification:'IBM Plex Sans Thai Looped Semi-Bold'"
         id="path552" />
      <path
         d="m 179.77041,72.574482 -9.70576,-24.281328 5.95405,-2.379957 1.61762,4.046888 0.23258,-0.09297 q -0.0367,-2.251164 1.02426,-4.185787 1.08885,-1.999732 3.92632,-3.133929 3.7678,-1.506066 6.75343,0.159763 2.98564,1.665829 4.80779,6.224392 l 6.13583,15.350265 -5.95404,2.379956 -5.89411,-14.745557 q -1.04123,-2.604894 -2.49217,-3.535472 -1.45093,-0.930579 -3.59067,-0.07528 -0.93032,0.371868 -1.70256,1.004238 -0.74432,0.567262 -1.23753,1.357838 -0.46529,0.725467 -0.58644,1.637063 -0.13974,0.86508 0.25072,1.841915 l 6.41472,16.048005 z"
         style="font-weight:600;font-family:'IBM Plex Sans Thai Looped';-inkscape-font-specification:'IBM Plex Sans Thai Looped Semi-Bold'"
         id="path549" />
      <path
         d="m 240.38565,54.863109 -4.36823,-8.264235 -12.21949,2.24174 -1.10097,9.267595 -6.60246,1.211263 5.22026,-36.50712 8.08062,-1.482441 17.74054,32.294817 z m -13.99514,-26.870285 -0.24636,0.0452 -1.79095,14.945589 9.06607,-1.663226 z"
         style="font-weight:600;font-family:'IBM Plex Sans Thai Looped';-inkscape-font-specification:'IBM Plex Sans Thai Looped Semi-Bold'"
         id="path546" />
      <path
         d="m 260.53638,53.752359 q -3.75291,0.176767 -6.36382,-0.954006 -2.61327,-1.180811 -4.67084,-3.340644 l 3.72391,-3.986795 q 1.52891,1.582935 3.27501,2.453541 1.79614,0.868248 4.04789,0.762189 2.30179,-0.108417 3.26486,-0.956177 1.01311,-0.850117 0.94712,-2.251207 -0.0542,-1.150896 -0.83543,-1.766048 -0.73355,-0.667549 -2.49669,-0.835253 l -2.61852,-0.227714 q -4.27924,-0.350094 -6.61819,-2.095474 -2.29128,-1.797777 -2.46097,-5.400579 -0.0896,-1.901479 0.54027,-3.435643 0.62748,-1.584203 1.879,-2.696299 1.24916,-1.162136 3.02464,-1.797412 1.82316,-0.687671 4.07491,-0.793731 1.90148,-0.08956 3.36675,0.142323 1.51295,0.179488 2.73981,0.673351 1.2245,0.443824 2.26299,1.197309 1.03613,0.703446 2.03165,1.609405 l -3.57615,3.929686 q -1.20746,-1.146726 -2.84642,-1.871929 -1.63895,-0.725203 -3.54043,-0.635641 -2.10164,0.09899 -3.01702,0.894354 -0.86535,0.793007 -0.80879,1.993941 0.0613,1.301012 0.84486,1.966204 0.83127,0.612796 2.69685,0.825825 l 2.66856,0.225358 q 8.51314,0.802621 8.81954,7.307681 0.0896,1.901479 -0.63564,3.540435 -0.67753,1.58656 -2.02441,2.803448 -1.34924,1.166849 -3.32015,1.91163 -1.92324,0.692385 -4.37515,0.807872 z"
         style="font-weight:600;font-family:'IBM Plex Sans Thai Looped';-inkscape-font-specification:'IBM Plex Sans Thai Looped Semi-Bold'"
         id="path543" />
      <path
         d="m 285.09991,53.985945 q -3.74859,-0.252422 -6.2135,-1.673599 -2.46153,-1.471158 -4.25934,-3.851572 l 4.15432,-3.536053 q 1.33839,1.746983 2.9738,2.811057 1.6854,1.06744 3.93455,1.218893 2.29914,0.154819 3.35261,-0.577568 1.10346,-0.729021 1.19769,-2.128495 0.0774,-1.149567 -0.62855,-1.849808 -0.65262,-0.746855 -2.38513,-1.114558 l -2.57547,-0.524881 q -4.21138,-0.835872 -6.336,-2.83663 -2.07128,-2.047374 -1.82896,-5.646021 0.12789,-1.899286 0.9286,-3.351603 0.80407,-1.502299 2.17426,-2.464398 1.37356,-1.01208 3.2099,-1.440711 1.88969,-0.475246 4.13885,-0.323793 1.89928,0.127894 3.32855,0.525384 1.4826,0.350875 2.64513,0.981444 1.16589,0.580587 2.11167,1.447599 0.94914,0.81703 1.83483,1.83062 l -4.00101,3.496169 q -1.06879,-1.276959 -2.61434,-2.184358 -1.54555,-0.9074 -3.44483,-1.035293 -2.09922,-0.141357 -3.09934,0.544414 -0.95015,0.689137 -1.03092,1.888686 -0.0875,1.299512 0.61509,2.049733 0.75595,0.703606 2.58506,1.128021 l 2.62544,0.528247 q 8.36605,1.76834 7.92852,8.265897 -0.1279,1.899286 -1.03529,3.444835 -0.85406,1.498933 -2.33094,2.554263 -1.47352,1.005349 -3.51652,1.52048 -1.98965,0.468515 -4.43873,0.303599 z"
         style="font-weight:600;font-family:'IBM Plex Sans Thai Looped';-inkscape-font-specification:'IBM Plex Sans Thai Looped Semi-Bold'"
         id="path540" />
      <path
         d="m 309.30466,25.972578 q -1.97944,-0.311383 -2.73006,-1.34225 -0.70114,-1.023083 -0.48317,-2.408687 l 0.15569,-0.989717 q 0.21797,-1.385604 1.19935,-2.144011 1.03087,-0.750623 3.0103,-0.43924 1.92995,0.303598 2.68057,1.334466 0.75063,1.030867 0.53266,2.416471 l -0.15569,0.989717 q -0.21797,1.385604 -1.24884,2.136227 -1.03087,0.750623 -2.96081,0.447024 z m -3.75873,3.262712 6.33419,0.996425 -4.06354,25.831613 -6.33419,-0.996425 z"
         style="font-weight:600;font-family:'IBM Plex Sans Thai Looped';-inkscape-font-specification:'IBM Plex Sans Thai Looped Semi-Bold'"
         id="path537" />
      <path
         d="m 323.30505,59.949443 q -3.64687,-0.903316 -5.82564,-2.733195 -2.16672,-1.878503 -3.5211,-4.53635 l 4.7081,-2.756048 q 1.01267,1.953906 2.43707,3.287283 1.47304,1.345421 3.66116,1.887411 2.23675,0.554034 3.40195,0.01692 1.21384,-0.525071 1.55107,-1.88657 0.27702,-1.118374 -0.29578,-1.931161 -0.51213,-0.849368 -2.15378,-1.514041 l -2.44419,-0.966673 q -4.00063,-1.558633 -5.74312,-3.899745 -1.68182,-2.377694 -0.81463,-5.87869 0.45768,-1.847748 1.49975,-3.137878 1.05412,-1.338754 2.5713,-2.046729 1.52922,-0.756599 3.4122,-0.857882 1.94366,-0.137863 4.13178,0.404126 1.84775,0.45768 3.18561,1.098712 1.39852,0.604451 2.43304,1.428387 1.04655,0.77531 1.82634,1.794194 0.79184,0.970258 1.48687,2.122972 l -4.55018,2.743556 q -0.82932,-1.444016 -2.19261,-2.60743 -1.36329,-1.163414 -3.21104,-1.621094 -2.04224,-0.505857 -3.14678,-0.0053 -1.05591,0.512579 -1.34497,1.679578 -0.31315,1.264248 0.2476,2.125661 0.62143,0.824831 2.34828,1.562217 l 2.49282,0.978718 q 7.92855,3.20247 6.3628,9.523714 -0.45768,1.847748 -1.62109,3.211039 -1.10274,1.32671 -2.74126,2.107846 -1.62647,0.732511 -3.72804,0.882867 -2.04091,0.113775 -4.42353,-0.476391 z"
         style="font-weight:600;font-family:'IBM Plex Sans Thai Looped';-inkscape-font-specification:'IBM Plex Sans Thai Looped Semi-Bold'"
         id="path534" />
      <path
         d="m 346.57693,66.436824 q -3.11601,-1.105293 -4.19904,-3.296647 -1.01908,-2.22182 0.0527,-5.243401 l 4.80635,-13.549901 -3.63534,-1.289507 1.70818,-4.815645 1.88849,0.669875 q 1.36915,0.485659 2.05898,0.03937 0.75379,-0.476755 1.20596,-1.751484 l 1.49047,-4.201886 5.4294,1.925889 -2.3948,6.751344 5.0517,1.791913 -1.70818,4.815645 -5.0517,-1.791914 -5.3255,15.013479 4.67401,1.657938 -1.70818,4.815645 z"
         style="font-weight:600;font-family:'IBM Plex Sans Thai Looped';-inkscape-font-specification:'IBM Plex Sans Thai Looped Semi-Bold'"
         id="path531" />
      <path
         d="m 373.84099,78.44672 q -1.89631,-0.911406 -2.50427,-2.537518 -0.5411,-1.649562 0.0777,-3.630926 l -0.2709,-0.130201 q -1.69366,2.020565 -4.06388,2.326467 -2.34852,0.260752 -5.01239,-1.019557 -3.61202,-1.736013 -4.64208,-4.565433 -1.03006,-2.829421 0.48895,-5.989944 1.75772,-3.657176 5.22274,-4.15943 3.48673,-0.547404 8.31781,1.774513 l 4.01838,1.931314 0.82461,-1.715713 q 0.9548,-1.986614 0.43715,-3.569326 -0.51765,-1.582711 -2.82032,-2.689419 -2.03177,-0.976507 -3.72998,-0.681105 -1.63136,0.271952 -3.07512,1.078708 l -1.95581,-4.719434 q 2.28586,-1.40246 5.03898,-1.579911 2.77482,-0.222602 6.3417,1.49171 4.78593,2.300217 6.22759,5.660941 1.44166,3.360724 -0.51135,7.424254 l -5.33824,11.10698 2.34782,1.128408 -2.21342,4.605333 z m -7.81416,-8.257609 q 1.94147,0.933107 3.70828,0.726255 1.76681,-0.206852 2.56972,-1.877414 l 1.49731,-3.115372 -3.70233,-1.779413 q -4.51503,-2.170016 -5.90384,0.719605 l -0.3689,0.767556 q -0.69441,1.44481 -0.1386,2.601219 0.62265,1.132958 2.33836,1.957564 z"
         style="font-weight:600;font-family:'IBM Plex Sans Thai Looped';-inkscape-font-specification:'IBM Plex Sans Thai Looped Semi-Bold'"
         id="path528" />
      <path
         d="m 381.56164,82.649441 14.34052,-21.866275 5.36185,3.516451 -2.39009,3.644379 0.20945,0.137361 q 1.82406,-1.319799 4.01753,-1.558646 2.26282,-0.253263 4.81808,1.422545 3.39304,2.225254 3.73826,5.626701 0.34521,3.401446 -2.34707,7.506609 l -9.06585,13.823507 -5.36185,-3.51645 8.70871,-13.278945 q 1.53845,-2.345807 1.46989,-4.068156 -0.0686,-1.722349 -1.99548,-2.986074 -0.83779,-0.549445 -1.79852,-0.820082 -0.89137,-0.285054 -1.82191,-0.236354 -0.86118,0.03428 -1.67774,0.457263 -0.78908,0.38109 -1.366,1.260768 l -9.47794,14.451849 z"
         style="font-weight:600;font-family:'IBM Plex Sans Thai Looped';-inkscape-font-specification:'IBM Plex Sans Thai Looped Semi-Bold'"
         id="path525" />
      <path
         d="m 412.08116,104.59519 q -2.5469,-2.1082 -2.81149,-4.53821 -0.19405,-2.43667 1.85026,-4.906388 l 9.16744,-11.075138 -2.97137,-2.459559 3.25811,-3.936112 1.54358,1.277693 q 1.11909,0.926327 1.92023,0.744089 0.87168,-0.188885 1.73412,-1.230797 l 2.84287,-3.434451 4.43777,3.673368 -4.56775,5.518274 4.12905,3.417829 -3.25811,3.936112 -4.12906,-3.417829 -10.15766,12.271409 3.82034,3.16229 -3.25811,3.93611 z"
         style="font-weight:600;font-family:'IBM Plex Sans Thai Looped';-inkscape-font-specification:'IBM Plex Sans Thai Looped Semi-Bold'"
         id="path522" />
      <path
         d="m 455.47251,97.260895 10.52266,12.291535 q 1.40085,1.63634 2.0138,3.3537 0.64552,1.75541 0.55214,3.418 -0.0934,1.6626 -0.99629,3.2269 -0.83228,1.56978 -2.35445,2.87289 -1.52218,1.30312 -2.94605,1.7967 -1.35325,0.49906 -2.62463,0.40049 -1.2388,-0.0605 -2.33058,-0.64257 -1.0592,-0.544 -1.87913,-1.42472 l -0.22832,0.19547 q 0.74929,0.87524 1.25383,2.15786 0.53711,1.32066 0.49274,2.80942 0.0263,1.49423 -0.66476,3.07495 -0.65296,1.54816 -2.3654,3.01416 -1.59828,1.36827 -3.46238,2.0409 -1.79347,0.67809 -3.6028,0.64439 -1.80934,-0.0337 -3.49328,-0.76824 -1.64588,-0.76713 -2.91642,-2.25124 l -11.53258,-13.47122 z m -17.99953,24.113815 5.99433,7.00199 q 1.23796,1.44606 2.64513,1.62622 1.44522,0.14759 2.85323,-1.0578 l 1.29385,-1.10765 q 1.408,-1.20538 1.48495,-2.65608 0.077,-1.45069 -1.16101,-2.89676 l -5.99433,-7.00199 z m 11.22602,-9.61048 5.31019,6.20285 q 1.17281,1.36995 2.5474,1.51206 1.41264,0.10953 2.74454,-1.0307 l 1.17968,-1.00991 q 1.3319,-1.14023 1.40338,-2.52029 0.10953,-1.41265 -1.06328,-2.7826 l -5.3102,-6.20285 z"
         style="font-weight:600;font-family:'IBM Plex Sans Thai Looped';-inkscape-font-specification:'IBM Plex Sans Thai Looped Semi-Bold'"
         id="path519" />
      <path
         d="m 450.74753,148.31709 q -1.15977,-1.69509 -0.89865,-3.0877 0.33076,-1.37956 1.65375,-2.28475 l 0.74418,-0.50916 q 1.32299,-0.90519 2.72866,-0.7137 1.43396,0.23284 2.59374,1.92792 1.18806,1.73643 0.8573,3.11599 -0.33076,1.37955 -1.65375,2.28474 l -0.74418,0.50917 q -1.32299,0.90519 -2.72866,0.7137 -1.36433,-0.21979 -2.55239,-1.95621 z"
         style="font-weight:600;font-family:'IBM Plex Sans Thai Looped';-inkscape-font-specification:'IBM Plex Sans Thai Looped Semi-Bold'"
         id="path516" />
      <path
         d="m 462.37992,167.42829 q -2.14744,-3.96422 -2.24115,-7.5027 -0.0699,-3.49444 1.14686,-6.7173 l 5.91162,1.86817 q -0.99099,2.58783 -0.91016,5.05082 0.10469,2.50704 1.39315,4.88557 1.45549,2.68686 3.34039,3.43194 1.92894,0.72122 3.91105,-0.3525 1.54164,-0.83512 2.03346,-2.24099 0.49182,-1.40587 -0.38004,-4.06705 l -1.13432,-3.1457 q -3.5333,-9.99319 3.95467,-14.04947 2.0702,-1.12144 4.14961,-1.27934 2.10327,-0.11386 4.07993,0.69545 1.97666,0.80932 3.6909,2.50143 1.78215,1.71229 3.18991,4.31106 1.88498,3.4797 2.14753,6.69884 0.26255,3.21913 -0.9817,6.28599 l -5.89142,-1.93608 q 0.78912,-1.90875 0.78722,-4.0157 -0.002,-2.10694 -1.33809,-4.57357 -1.36004,-2.51067 -3.02103,-3.26309 -1.59308,-0.73225 -3.3109,0.19831 -1.76188,0.95442 -2.04998,2.42085 -0.2881,1.46643 0.53237,3.92756 l 1.02237,3.14937 q 1.69232,5.12232 0.72705,8.49383 -0.89737,3.39169 -4.72945,5.46755 -2.20234,1.19303 -4.43775,1.37846 -2.1675,0.20562 -4.30016,-0.57615 -2.06476,-0.7616 -3.93867,-2.53812 -1.85006,-1.73249 -3.35327,-4.50744 z"
         style="font-weight:600;font-family:'IBM Plex Sans Thai Looped';-inkscape-font-specification:'IBM Plex Sans Thai Looped Semi-Bold'"
         id="path513" />
      <path
         d="m 474.71485,194.28785 q -1.04567,-2.71078 -0.96896,-5.15653 0.0767,-2.44574 1.20039,-4.54365 1.14169,-2.05116 3.19011,-3.70041 2.09516,-1.66727 5.03964,-2.80309 2.94447,-1.13581 5.56981,-1.28945 2.62535,-0.15364 4.80203,0.61748 2.24145,0.79984 3.94077,2.56048 1.69931,1.76065 2.74498,4.47144 1.42428,3.69227 0.70793,6.7069 -0.69832,3.06137 -3.1814,5.25412 l -4.08969,-4.0601 q 1.38008,-1.01559 1.91085,-2.56263 0.59554,-1.51834 -0.16167,-3.48133 -0.97356,-2.52383 -3.04942,-3.17277 -2.05783,-0.6022 -4.6284,0.38939 l -4.44008,1.71274 q -2.57057,0.99158 -3.6909,2.81974 -1.05557,1.85687 -0.082,4.3807 0.82932,2.14994 2.35501,2.90371 1.57243,0.73575 3.46065,0.75907 l -0.42985,5.42765 q -3.69365,0.0288 -6.28499,-1.81728 -2.54461,-1.86412 -3.9148,-5.41618 z"
         style="font-weight:600;font-family:'IBM Plex Sans Thai Looped';-inkscape-font-specification:'IBM Plex Sans Thai Looped Semi-Bold'"
         id="path510" />
      <path
         d="m 480.74298,212.38695 q -0.5582,-1.97656 0.13368,-3.21303 0.75371,-1.20187 2.29639,-1.63754 l 0.86776,-0.24507 q 1.54268,-0.43567 2.81374,0.19439 1.28468,0.67827 1.84288,2.65483 0.57182,2.02477 -0.18189,3.22665 -0.75371,1.20187 -2.29639,1.63754 l -0.86776,0.24507 q -1.54268,0.43567 -2.81374,-0.19439 -1.22286,-0.64368 -1.79467,-2.66845 z"
         style="font-weight:600;font-family:'IBM Plex Sans Thai Looped';-inkscape-font-specification:'IBM Plex Sans Thai Looped Semi-Bold'"
         id="path507" />
    </g>
    <circle
       style="fill:none;fill-rule:evenodd;stroke:none;stroke-width:0.313902"
       id="circle16"
       cx="25.137768"
       cy="382.68597"
       r="257.40009"
       transform="matrix(-0.65992958,0.75132746,0.75132746,0.65992958,0,0)" />
    <g
       aria-label="Arztassistent*in"
       transform="translate(0,-1.0583333)"
       id="text20"
       style="font-weight:600;font-size:50.0944px;line-height:1.25;font-family:'IBM Plex Sans Thai Looped';-inkscape-font-specification:'IBM Plex Sans Thai Looped Semi-Bold';baseline-shift:baseline;opacity:1;vector-effect:none;stroke-width:0.264583;stop-color:#000000;stop-opacity:1">
      <path
         d="m 121.12678,480.95834 3.21752,-8.77647 -9.8433,-7.57961 -7.6232,5.38399 -5.31856,-4.09544 30.62057,-20.55241 6.50928,5.01232 -12.12467,34.79475 z m 10.60043,-28.38145 -0.19846,-0.15282 -12.30404,8.67115 7.3031,5.62358 z"
         style="baseline-shift:baseline;vector-effect:none;stop-color:#000000;stop-opacity:1"
         id="path858" />
      <path
         d="m 130.77468,487.45446 13.73219,-22.25335 5.45676,3.36728 -2.84115,4.60414 0.21316,0.13154 q 0.7656,-0.76372 1.69174,-1.31064 0.99508,-0.56324 2.11441,-0.75549 1.11932,-0.19225 2.3366,0.0291 1.2599,0.24769 2.58146,1.0632 l 1.19367,0.7366 -3.18313,5.15834 -1.70524,-1.05227 q -2.77101,-1.70995 -4.67766,-1.76809 -1.90666,-0.0581 -3.03785,1.77499 l -8.4182,13.6419 z"
         style="baseline-shift:baseline;vector-effect:none;stop-color:#000000;stop-opacity:1"
         id="path855" />
      <path
         d="m 145.98412,496.79024 2.29267,-4.5664 19.30248,-8.18989 -11.72937,-5.889 2.27018,-4.52163 18.44467,9.26056 -2.22523,4.4321 -19.43698,8.23447 12.53521,6.29359 -2.29266,4.5664 z"
         style="baseline-shift:baseline;vector-effect:none;stop-color:#000000;stop-opacity:1"
         id="path852" />
      <path
         d="m 177.89833,511.51927 q -3.07111,-1.22452 -4.06892,-3.45597 -0.93272,-2.25943 0.2547,-5.23748 l 5.3248,-13.35467 -3.58296,-1.42861 1.89244,-4.74626 1.86128,0.74214 q 1.34942,0.53804 2.05593,0.11866 0.7716,-0.44736 1.27254,-1.70372 l 1.65125,-4.14135 5.35117,2.13363 -2.65312,6.65407 4.97892,1.98521 -1.89244,4.74626 -4.97892,-1.98521 -5.89996,14.79717 4.60667,1.83677 -1.89244,4.74626 z"
         style="baseline-shift:baseline;vector-effect:none;stop-color:#000000;stop-opacity:1"
         id="path849" />
      <path
         d="m 206.21756,520.7832 q -2.01729,-0.59767 -2.87653,-2.10617 -0.79697,-1.54229 -0.50171,-3.59693 l -0.28819,-0.0854 q -1.35014,2.26457 -3.64136,2.94416 -2.27699,0.63155 -5.1108,-0.20805 -3.84245,-1.13843 -5.31009,-3.76762 -1.46764,-2.6292 -0.47152,-5.99134 1.15266,-3.89049 4.49343,-4.93832 3.35499,-1.09587 8.49427,0.42679 l 4.27473,1.2665 0.54076,-1.82516 q 0.62613,-2.11335 -0.13704,-3.59339 -0.76318,-1.48003 -3.21274,-2.20578 -2.16138,-0.64037 -3.79085,-0.0782 -1.5672,0.52836 -2.86401,1.55481 l -2.68266,-4.34759 q 2.03326,-1.7487 4.72295,-2.36247 2.70392,-0.6618 6.49834,0.4624 5.09126,1.50842 7.04988,4.59657 1.95863,3.08814 0.6779,7.4109 l -3.50068,11.81554 2.49759,0.73998 -1.4515,4.89913 z m -9.02984,-6.90732 q 2.06532,0.6119 3.77661,0.12623 1.7113,-0.48567 2.23783,-2.2628 l 0.98189,-3.31412 -3.93851,-1.16689 q -4.80307,-1.42304 -5.71381,1.65092 l -0.24192,0.81653 q -0.45537,1.53698 0.27755,2.59008 0.79519,1.01929 2.62036,1.56005 z"
         style="baseline-shift:baseline;vector-effect:none;stop-color:#000000;stop-opacity:1"
         id="path846" />
      <path
         d="m 223.06339,524.99494 q -3.69264,-0.69285 -5.97269,-2.39487 -2.2708,-1.75125 -3.77527,-4.32712 l 4.54244,-3.02131 q 1.12297,1.89266 2.62144,3.14222 1.54771,1.2588 3.7633,1.67451 2.26482,0.42495 3.39733,-0.17805 1.18175,-0.59377 1.44041,-1.97236 0.21248,-1.13241 -0.40596,-1.91103 -0.55996,-0.81863 -2.237,-1.38814 l -2.49557,-0.82502 q -4.08337,-1.32682 -5.95715,-3.56423 -1.81531,-2.27741 -1.15017,-5.82235 0.35104,-1.87094 1.31747,-3.21866 0.97567,-1.39696 2.44979,-2.19071 1.48335,-0.84299 3.35744,-1.05201 1.93256,-0.24902 4.14814,0.16669 1.87094,0.35105 3.24333,0.91436 1.43087,0.52332 2.5109,1.28662 1.08926,0.71406 1.92616,1.68659 0.84614,0.92328 1.60608,2.03428 l -4.38549,2.99979 q -0.9107,-1.39412 -2.33842,-2.4775 -1.42772,-1.08338 -3.29865,-1.43443 -2.06788,-0.38799 -3.14192,0.17502 -1.02481,0.57224 -1.24652,1.75389 -0.24019,1.28011 0.36901,2.10797 0.66767,0.78787 2.43394,1.42509 l 2.5448,0.83426 q 8.09905,2.74287 6.89811,9.14345 -0.35105,1.87094 -1.43443,3.29865 -1.0249,1.38773 -2.61596,2.26147 -1.58183,0.82451 -3.67133,1.09505 -2.03103,0.23054 -4.44356,-0.22212 z"
         style="baseline-shift:baseline;vector-effect:none;stop-color:#000000;stop-opacity:1"
         id="path843" />
      <path
         d="m 247.52421,528.38757 q -3.74215,-0.33462 -6.17527,-1.80954 -2.42866,-1.52482 -4.17381,-3.94411 l 4.23092,-3.44404 q 1.29973,1.77593 2.9114,2.87563 1.66157,1.10417 3.90685,1.30494 2.29519,0.20523 3.36448,-0.50386 1.11919,-0.70463 1.24411,-2.1017 0.10262,-1.14759 -0.58781,-1.86316 -0.63607,-0.76099 -2.3601,-1.16662 l -2.56333,-0.58127 q -4.19202,-0.92809 -6.27223,-2.97498 -2.02586,-2.09234 -1.70462,-5.6848 0.16954,-1.89602 1.00192,-3.33042 0.83684,-1.48429 2.22781,-2.41609 1.39544,-0.9817 3.24075,-1.36993 1.89966,-0.43367 4.14495,-0.23289 1.89602,0.16954 3.31622,0.59829 1.47455,0.38333 2.62296,1.03925 1.15287,0.60604 2.07939,1.49359 0.93099,0.83766 1.79423,1.87044 l -4.07677,3.40754 q -1.04051,-1.30011 -2.56578,-2.2412 -1.52526,-0.9411 -3.42129,-1.11064 -2.0956,-0.18739 -3.11053,0.47627 -0.96504,0.66812 -1.07212,1.86561 -0.116,1.29728 0.56996,2.06274 0.74033,0.72002 2.55969,1.18447 l 2.61322,0.58573 q 8.32523,1.9515 7.74522,8.43789 -0.16954,1.89602 -1.11063,3.42129 -0.88674,1.47983 -2.38643,2.5025 -1.49522,0.97277 -3.54903,1.44295 -1.99946,0.42474 -4.44433,0.20612 z"
         style="baseline-shift:baseline;vector-effect:none;stop-color:#000000;stop-opacity:1"
         id="path840" />
      <path
         d="m 267.60578,498.85675 q -2.00358,-0.0282 -2.89247,-0.94257 -0.83881,-0.91362 -0.81904,-2.31612 l 0.0141,-1.00179 q 0.0198,-1.4025 0.88401,-2.29211 0.91432,-0.88889 2.9179,-0.86065 1.95348,0.0275 2.84238,0.94186 0.8889,0.91433 0.86913,2.31683 l -0.0141,1.00179 q -0.0198,1.4025 -0.93409,2.2914 -0.91432,0.8889 -2.86781,0.86136 z m -3.25939,3.7616 6.41145,0.0904 -0.36863,26.14668 -6.41144,-0.0904 z"
         style="baseline-shift:baseline;vector-effect:none;stop-color:#000000;stop-opacity:1"
         id="path837" />
      <path
         d="m 286.39627,528.96993 q -3.7503,0.22565 -6.37572,-0.87101 -2.62842,-1.14667 -4.71397,-3.27951 l 3.67166,-4.03497 q 1.5494,1.56288 3.3067,2.41066 1.8073,0.84478 4.05748,0.70939 2.30018,-0.1384 3.25212,-0.99863 1.00195,-0.86325 0.91771,-2.26336 -0.0692,-1.15009 -0.85837,-1.75501 -0.74218,-0.65794 -2.50736,-0.80266 l -2.62127,-0.19358 q -4.28343,-0.29431 -6.64493,-2.00907 -2.3145,-1.76777 -2.53112,-5.36806 -0.11433,-1.90015 0.49547,-3.44239 0.60679,-1.59224 1.84371,-2.72055 1.23392,-1.17831 3.00096,-1.83666 1.81405,-0.71137 4.06423,-0.84676 1.90015,-0.11432 3.36831,0.0985 1.51517,0.15976 2.74836,0.6376 1.23018,0.42783 2.27839,1.16772 1.04521,0.68989 2.05245,1.5828 l -3.52465,3.97595 q -1.2223,-1.1309 -2.87056,-1.83469 -1.64827,-0.70379 -3.54842,-0.58946 -2.10017,0.12636 -3.00511,0.93359 -0.85494,0.80421 -0.78274,2.00431 0.0782,1.3001 0.87041,1.95503 0.83917,0.60191 2.70737,0.79061 l 2.67127,0.19058 q 8.52288,0.69164 8.914,7.19215 0.11433,1.90015 -0.58946,3.54842 -0.65679,1.59525 -1.98771,2.82958 -1.33392,1.18433 -3.29497,1.95473 -1.91405,0.71738 -4.36424,0.8648 z"
         style="baseline-shift:baseline;vector-effect:none;stop-color:#000000;stop-opacity:1"
         id="path834" />
      <path
         d="m 310.41137,525.80668 q -3.2723,0.47242 -5.25098,-0.96278 -1.93626,-1.49194 -2.39437,-4.66509 l -2.05434,-14.22956 -3.81769,0.55116 -0.73011,-5.0572 1.98322,-0.28631 q 1.43783,-0.20758 1.84058,-0.92371 0.44517,-0.77286 0.2519,-2.11153 l -0.63705,-4.41265 5.70174,-0.82317 1.02359,7.08999 5.30509,-0.7659 0.73012,5.0572 -5.3051,0.7659 2.27623,15.76655 4.90846,-0.70863 0.73011,5.05719 z"
         style="baseline-shift:baseline;vector-effect:none;stop-color:#000000;stop-opacity:1"
         id="path831" />
      <path
         d="m 331.08987,522.34442 q -2.82676,0.67174 -5.28872,0.27849 -2.42481,-0.45356 -4.38976,-1.78875 -1.92779,-1.39551 -3.33541,-3.63547 -1.4192,-2.28871 -2.14885,-5.35915 -0.71807,-3.02171 -0.51736,-5.64388 0.24945,-2.63374 1.35494,-4.69858 1.09391,-2.11357 3.06703,-3.56075 1.96154,-1.49592 4.73956,-2.15608 2.97296,-0.70649 5.40935,-0.20419 2.43639,0.50231 4.26671,1.92098 1.83032,1.41866 3.06857,3.5959 1.2754,2.11693 1.90081,4.74873 l 0.48643,2.04697 -16.9118,4.01885 0.15056,0.63359 q 0.66016,2.77802 2.62511,4.1132 1.95337,1.28645 5.02381,0.5568 2.33939,-0.55592 3.56987,-1.87812 1.27922,-1.33377 2.08987,-3.12259 l 4.25466,2.95363 q -1.03841,2.56379 -3.46657,4.47953 -2.391,1.85542 -5.94881,2.70089 z m -5.30925,-21.90857 q -2.4856,0.59067 -3.55394,2.59519 -1.06833,2.00451 -0.44292,4.63632 l 0.0927,0.3899 10.42976,-2.47849 -0.10424,-0.43864 q -0.62541,-2.6318 -2.32351,-3.92742 -1.66094,-1.35594 -4.0978,-0.77686 z"
         style="baseline-shift:baseline;vector-effect:none;stop-color:#000000;stop-opacity:1"
         id="path828" />
      <path
         d="m 347.78596,517.37834 -8.83793,-24.61048 6.03476,-2.16715 1.47298,4.10174 0.23574,-0.0847 q 0.0432,-2.25105 1.17216,-4.1468 1.15913,-1.95983 4.03507,-2.99262 3.81887,-1.3714 6.7435,0.39934 2.92464,1.77073 4.58387,6.39109 l 5.5872,15.55835 -6.03476,2.16715 -5.36709,-14.94544 q -0.94813,-2.6402 -2.36513,-3.62169 -1.41699,-0.98148 -3.58573,-0.20266 -0.94293,0.33862 -1.73713,0.94318 -0.76398,0.54049 -1.28494,1.31307 -0.49074,0.70849 -0.64417,1.61522 -0.17035,0.85957 0.1852,1.84965 l 5.84115,16.26554 z"
         style="baseline-shift:baseline;vector-effect:none;stop-color:#000000;stop-opacity:1"
         id="path825" />
      <path
         d="m 382.68792,503.39417 q -2.9931,1.40446 -5.30386,0.60735 -2.28669,-0.86373 -3.6486,-3.76613 l -6.10729,-13.01545 -3.49195,1.63854 -2.17053,-4.62569 1.814,-0.85119 q 1.31515,-0.61712 1.49201,-1.41946 0.20093,-0.86898 -0.37362,-2.09343 l -1.8939,-4.03615 5.21525,-2.44717 3.043,6.48505 4.85245,-2.27694 2.17054,4.6257 -4.85245,2.27693 6.76696,14.4213 4.48965,-2.1067 2.17054,4.6257 z"
         style="baseline-shift:baseline;vector-effect:none;stop-color:#000000;stop-opacity:1"
         id="path822" />
      <path
         d="m 389.56636,483.95927 -5.46002,-0.40128 1.41886,-9.07494 -8.65743,2.16824 -1.06221,-5.18335 8.75995,-1.2994 -4.87043,-7.42299 4.84122,-2.83569 4.1356,7.8534 5.37467,-6.9798 4.00152,3.46168 -6.12556,6.49075 8.60936,3.20101 -2.34582,4.91541 -8.12032,-3.9519 z"
         style="baseline-shift:baseline;vector-effect:none;stop-color:#000000;stop-opacity:1"
         id="path819" />
      <path
         d="m 401.36433,457.83399 q -1.64072,1.15027 -2.89667,0.92957 -1.21494,-0.24946 -2.02013,-1.39797 l -0.57514,-0.82036 q -0.80519,-1.14851 -0.62551,-2.37571 0.22071,-1.25595 1.86143,-2.40622 1.59971,-1.12152 2.85566,-0.90082 1.25595,0.2207 2.06115,1.36921 l 0.57513,0.82037 q 0.8052,1.1485 0.58449,2.40446 -0.2207,1.25595 -1.82041,2.37747 z m -0.43963,4.95782 5.25032,-3.68089 15.0111,21.41149 -5.25032,3.68088 z"
         style="baseline-shift:baseline;vector-effect:none;stop-color:#000000;stop-opacity:1"
         id="path816" />
      <path
         d="m 427.27638,476.27108 -16.76357,-20.06907 4.92115,-4.1106 2.79392,3.34484 0.19224,-0.16057 q -0.73365,-2.12858 -0.32567,-4.29696 0.41432,-2.23894 2.75955,-4.1979 3.11417,-2.60125 6.46942,-1.94449 3.35524,0.65676 6.50243,4.42451 l 10.59766,12.68734 -4.92115,4.11061 -10.18018,-12.18754 q -1.79839,-2.153 -3.46651,-2.58722 -1.66813,-0.43422 -3.43667,1.04303 -0.76893,0.64228 -1.30673,1.48313 -0.53146,0.77029 -0.7549,1.67491 -0.21711,0.83406 -0.0493,1.73823 0.1357,0.86573 0.81009,1.6731 l 11.07938,13.26404 z"
         style="baseline-shift:baseline;vector-effect:none;stop-color:#000000;stop-opacity:1"
         id="path813" />
    </g>
    <g
       id="g435"
       transform="matrix(1.1136459,0,0,1.1136459,-30.790308,-11.145045)">
      <g
         id="path2">
        <path
           style="color:#000000;fill:#ffd700;stroke-width:3.73283;stroke-linecap:round;stroke-linejoin:round;-inkscape-stroke:none"
           d="m 261.95932,118.06545 c -9.0275,2.97205 -18.76754,11.37502 -18.99075,25.42984 -0.18736,11.7554 11.5988,25.12659 22.04697,32.8722 -0.81972,-17.20159 0.1597,-13.67988 0.44329,-20.0406 -3.8463,-3.33044 -6.36709,-6.53244 -6.67242,-9.892 -0.34343,-3.76717 1.61946,-7.99086 5.34259,-9.28539 0.60847,-0.2119 1.25872,-0.33222 1.95974,-0.37327 4.29919,0.78152 7.29162,4.73689 10.24192,7.65227 1.84015,1.42561 3.82687,2.69009 5.92585,3.42953 1.58052,0.55694 3.23098,0.84195 4.92269,0.62994 3.1968,-0.40017 3.31288,-0.59784 3.31288,-5.57592 3.22068,0.29267 5.75004,3.38921 6.06584,-4.68935 0.17832,-4.56898 -3.44988,-13.30025 -14.74466,-18.50083 -6.30464,-3.17891 -13.13509,-3.1567 -19.85394,-1.65642 z m 18.12751,48.96998 c -0.11932,0.85705 -0.15632,18.67216 0.07,20.13392 4.65484,4.45475 8.49219,10.5818 8.49219,19.59733 0,11.72033 -4.79333,17.73503 -10.87186,23.37683 -5.12014,4.43653 -9.98751,9.12982 -14.65131,14.04473 -9.75912,10.42879 -17.93305,21.61923 -17.52095,35.48519 0.40162,13.50834 10.08794,19.94131 20.11057,25.45321 -0.37027,-8.151 -0.41601,-8.72586 -0.67657,-17.0777 -3.87391,-3.58351 -6.05836,-6.93783 -5.9725,-11.01182 0.10519,-4.93853 2.33487,-9.96552 5.55255,-14.79133 3.74533,-5.44795 8.40346,-10.16117 12.99492,-14.88464 2.4551,-2.3621 4.98474,-4.6451 7.5123,-6.92904 9.07895,-8.19952 18.21004,-21.36315 18.45416,-36.88497 0.28133,-17.99 -12.36816,-28.70042 -23.49347,-36.51171 z m -1.56311,131.48876 c 0.0708,1.75071 0.49756,8.64691 0.69991,14.48804 17.27264,11.71997 6.69883,27.19769 -3.40622,38.77468 -2.27034,2.58422 -5.05211,4.64384 -7.79226,6.69578 -8.84844,6.61583 -19.14332,10.65818 -29.74597,13.46148 13.11791,-1.67453 22.67711,-5.27707 29.79262,-9.09876 2.8465,-1.22008 5.26957,-3.01334 7.74561,-4.80599 3.54171,-2.51146 6.15339,-4.8077 8.14224,-6.32248 6.14945,-4.68618 16.04228,-15.35246 14.65131,-25.17325 -2.02651,-14.40398 -10.75422,-21.02827 -20.08724,-28.0195 z"
           id="path925" />
        <path
           style="color:#000000;fill:#000000;stroke-linecap:round;stroke-linejoin:round;-inkscape-stroke:none"
           d="m 272.17187,115.28125 c -3.55408,-0.21955 -7.13034,0.18386 -10.61914,0.96289 a 1.8666017,1.8666017 0 0 0 -0.17773,0.0488 c -9.64127,3.17411 -20.03673,12.26692 -20.27344,27.17187 -0.1038,6.5125 3.02693,13.09992 7.39649,19.07227 4.36955,5.97235 10.03913,11.35124 15.40625,15.33008 a 1.8666017,1.8666017 0 0 0 2.97461,-1.58789 c -0.81693,-17.14307 0.15184,-13.28678 0.44531,-19.86914 a 1.8666017,1.8666017 0 0 0 -0.64453,-1.49414 c -3.70383,-3.20708 -5.80396,-6.10655 -6.03516,-8.6504 -0.2736,-3.00122 1.3718,-6.40573 4.09766,-7.35351 0.35144,-0.12239 0.76512,-0.18269 1.20117,-0.22656 3.27333,0.70573 6.03419,4.06433 9.07617,7.07031 a 1.8666017,1.8666017 0 0 0 0.16797,0.14844 c 1.9319,1.49669 4.06942,2.87647 6.44922,3.71484 1.7764,0.62597 3.73028,0.977 5.77539,0.7207 0.81569,-0.10209 1.49817,-0.18047 2.2207,-0.41992 0.72314,-0.23965 1.55092,-0.78477 2.00586,-1.55078 0.56465,-0.95074 0.67948,-1.95855 0.70508,-3.10937 0.70705,0.21285 1.51775,0.4839 2.61133,0.28125 1.15024,-0.21316 2.2363,-1.24811 2.71094,-2.45118 0.47463,-1.20306 0.67488,-2.67346 0.75781,-4.79492 0.22022,-5.64261 -3.94807,-14.78137 -15.80274,-20.25195 -3.38588,-1.70128 -6.90643,-2.54286 -10.44922,-2.76172 z m -0.26171,3.71484 c 3.117,0.189 6.15369,0.92591 9.0625,2.39258 a 1.8666017,1.8666017 0 0 0 0.0605,0.0293 c 10.71182,4.93216 13.79639,13.24185 13.66016,16.73242 -0.075,1.91782 -0.31092,3.09104 -0.5,3.57031 -0.0463,0.11725 -0.0215,0.0886 -0.0293,0.12696 -0.0251,-0.0145 -0.29535,-0.0263 -0.88086,-0.19922 -0.65802,-0.19432 -1.54439,-0.49769 -2.62304,-0.59571 a 1.8666017,1.8666017 0 0 0 -2.03516,1.85938 c 0,2.41739 -0.22952,3.49871 -0.19141,3.46875 -0.20538,0.0654 -0.71763,0.15963 -1.48632,0.25586 -1.33831,0.16772 -2.68568,-0.0512 -4.07032,-0.53906 -1.79539,-0.63249 -3.60727,-1.76521 -5.33593,-3.09766 -2.77704,-2.77099 -5.93589,-7.11832 -11.11915,-8.06055 a 1.8666017,1.8666017 0 0 0 -0.4414,-0.0273 c -0.84625,0.0495 -1.67359,0.19905 -2.46485,0.47461 -4.72039,1.64128 -7.00114,6.68369 -6.58789,11.2168 0.35217,3.87494 3.03317,7.15787 6.58789,10.37304 -0.27917,4.03839 -0.69273,5.87018 -0.41992,15.29102 -4.14023,-3.4396 -8.30426,-7.45013 -11.58593,-11.93555 -4.08872,-5.58849 -6.75935,-11.56375 -6.67579,-16.80664 0.20919,-13.17197 9.25034,-20.87067 17.64649,-23.6582 3.19057,-0.70399 6.35002,-1.05783 9.42969,-0.8711 z m 8.17578,46.17383 a 1.8666017,1.8666017 0 0 0 -1.84766,1.60742 c -0.0749,0.53794 -0.0463,0.68485 -0.0586,1.26953 -0.0123,0.58469 -0.0229,1.36224 -0.0312,2.27344 -0.0168,1.82241 -0.0255,4.17917 -0.0234,6.55664 0.002,2.37747 0.0163,4.77306 0.043,6.67578 0.0133,0.95137 0.0297,1.77939 0.0508,2.42774 0.0211,0.64835 0.021,1.00485 0.0937,1.47461 a 1.8666017,1.8666017 0 0 0 0.55469,1.0625 c 4.4074,4.21795 7.91601,9.76409 7.91601,18.25 0,11.21012 -4.32219,16.4819 -10.27343,22.00586 -7e-4,6.5e-4 -0.001,0.001 -0.002,0.002 -5.1524,4.46746 -10.04917,9.18938 -14.73633,14.12891 a 1.8666017,1.8666017 0 0 0 -0.008,0.008 c -9.85898,10.53551 -18.45819,22.18813 -18.02344,36.81641 0.2138,7.19088 2.9815,12.69937 6.94922,16.94531 3.96773,4.24593 9.06946,7.30654 14.12696,10.08789 a 1.8666017,1.8666017 0 0 0 2.76367,-1.7207 c -0.37041,-8.15398 -0.41535,-8.70309 -0.67578,-17.05079 a 1.8666017,1.8666017 0 0 0 -0.59766,-1.31054 c -3.70446,-3.42676 -5.44635,-6.21784 -5.375,-9.60352 0.0938,-4.40215 2.13208,-9.13189 5.23633,-13.78906 0.001,-0.002 0.003,-0.004 0.004,-0.006 3.61126,-5.24741 8.17069,-9.87705 12.75391,-14.5918 2.42099,-2.32855 4.92923,-4.59418 7.45117,-6.87304 9.35439,-8.44828 18.81495,-22.00332 19.07032,-38.24024 0.29518,-18.87614 -13.04968,-30.17834 -24.28711,-38.06836 a 1.8666017,1.8666017 0 0 0 -1.07422,-0.33789 z m 1.79492,5.59375 c 10.11248,7.47037 20.07816,17.13969 19.83398,32.75391 -0.23287,14.80669 -9.03634,27.57855 -17.83984,35.52929 -2.52699,2.28343 -5.07099,4.57914 -7.55469,6.96875 a 1.8666017,1.8666017 0 0 0 -0.0449,0.0449 c -4.58422,4.71602 -9.3254,9.49779 -13.19531,15.12695 a 1.8666017,1.8666017 0 0 0 -0.0137,0.0234 c -3.32879,4.99244 -5.74866,10.31415 -5.86524,15.78711 -0.0952,4.51586 2.31004,8.26611 6.00195,11.83203 0.18391,5.83495 0.31457,8.59745 0.51172,12.91406 -3.85535,-2.25613 -7.52296,-4.64864 -10.29882,-7.61914 -3.48149,-3.7256 -5.75749,-8.19037 -5.94532,-14.50781 -0.38932,-13.09967 7.35459,-23.82534 17.00977,-34.14453 l 0.008,-0.01 c 4.62323,-4.87162 9.44463,-9.51764 14.51172,-13.9082 a 1.8666017,1.8666017 0 0 0 0.0469,-0.043 c 6.20473,-5.75893 11.46876,-12.51495 11.46875,-24.74414 0,-9.18146 -3.88038,-15.68975 -8.5371,-20.35156 -0.0127,-0.19244 -0.0185,-0.22537 -0.0293,-0.55665 -0.0198,-0.60904 -0.0357,-1.41966 -0.0488,-2.35742 -0.0263,-1.87551 -0.039,-4.26275 -0.041,-6.6289 -0.002,-2.21796 0.007,-4.35582 0.0215,-6.10938 z m -4.22656,126.10938 a 1.8666017,1.8666017 0 0 0 -0.9961,1.72656 c 0.075,1.85555 0.49826,8.67538 0.69922,14.47656 a 1.8666017,1.8666017 0 0 0 0.81836,1.48047 c 8.174,5.54629 9.40507,11.22105 7.80469,17.43164 -1.59989,6.2087 -6.57236,12.84657 -11.56445,18.56641 -2.09595,2.38572 -4.76415,4.37756 -7.50977,6.43359 -8.58411,6.41784 -18.64143,10.38621 -29.10352,13.15234 a 1.8666017,1.8666017 0 0 0 0.71289,3.6543 c 13.25563,-1.69211 23.00677,-5.34166 30.29102,-9.23437 3.09615,-1.32709 5.62908,-3.21622 8.08984,-4.99805 l 0.01,-0.008 c 3.61976,-2.5679 6.29376,-4.91415 8.18359,-6.35352 a 1.8666017,1.8666017 0 0 0 0.002,0 c 3.23393,-2.46441 7.34488,-6.3943 10.56054,-11.08984 3.21529,-4.69499 5.60061,-10.21721 4.80664,-15.82813 v -0.002 c -2.11905,-15.05652 -11.47789,-22.25466 -20.8164,-29.25 a 1.8666017,1.8666017 0 0 0 -1.98828,-0.1582 z m 2.92968,5.61718 c 7.89909,6.06731 14.47515,12.19898 16.17969,24.31446 0.59617,4.20919 -1.27104,8.93293 -4.1914,13.19726 -2.92037,4.26434 -6.82863,8.00871 -9.74415,10.23047 -2.08557,1.58845 -4.63285,3.83378 -8.08984,6.28516 a 1.8666017,1.8666017 0 0 0 -0.0156,0.01 c -2.40447,1.74083 -4.65311,3.35849 -7.14063,4.46875 0.5104,-0.3592 1.05856,-0.6442 1.56055,-1.01953 a 1.8666017,1.8666017 0 0 0 0.002,0 c 2.73468,-2.04784 5.62949,-4.17431 8.07422,-6.95703 a 1.8666017,1.8666017 0 0 0 0.004,-0.006 c 5.1114,-5.85595 10.47646,-12.74321 12.37109,-20.0957 1.83515,-7.12169 -0.15548,-14.76351 -8.54688,-20.84766 -0.15128,-3.95779 -0.3153,-6.86005 -0.46289,-9.58008 z"
           id="path927" />
      </g>
      <g
         id="path4">
        <path
           style="color:#000000;fill:#000000;stroke-width:3.73283;stroke-linecap:round;stroke-linejoin:round;-inkscape-stroke:none"
           d="m 280.08403,167.0289 c -0.11932,0.85704 -0.15829,18.67606 0.068,20.13783 0.2263,1.4618 0.43899,2.92504 0.42855,4.36443 -0.0142,2.27627 -1.16613,4.89074 -1.32966,7.0289 -0.55767,7.32158 2.29046,3.23787 2.66301,7.32158 0.29266,3.22216 -2.23297,5.02214 -2.03737,7.32156 0.57263,6.73552 -1.11388,11.15144 -2.06276,16.69319 l -14.64907,13.80922 c 0.88317,-7.07445 -1.3319,-11.34631 -3.214,-14.68942 -2.6376,-4.68468 -1.49686,-8.24582 -3.22367,-12.59232 -1.90746,-4.79817 -3.51407,-7.61496 3.22217,-9.66427 2.91461,0.975 2.50923,4.75413 5.27152,5.27148 3.50364,-0.8757 0.62113,-18.45808 -0.19865,-35.65967 -0.81972,-17.20161 0.15294,-13.68752 0.43674,-20.04826 0.2837,-6.36073 -0.42554,-12.84092 -1.32141,-19.16433 l -7.7e-4,0.003 c 7.06615,-2.06219 11.34997,9.75604 18.13109,10.70798 -0.12102,5.54549 -0.77269,10.82071 -1.81939,16.58794 -0.15462,0.85106 -0.24492,1.71411 -0.3643,2.57115 z m -2.37687,80.23894 c -0.033,0.0315 -0.0603,0.0617 -0.0934,0.0934 -2.71142,2.5955 -9.71123,9.98731 -12.94825,14.81467 0.0478,8.55122 0.16423,19.16835 0.37329,25.87313 0.26044,8.35183 0.30629,8.9267 0.67658,17.07769 0.37029,8.15099 0.80365,16.3828 1.25981,24.93991 0.51365,9.63743 0.92968,19.13486 1.04988,28.41615 2.71149,-2.02734 5.44669,-4.00849 7.79225,-6.69577 0.18059,-7.43579 1.05919,-14.60819 2.58967,-22.32694 0.96829,-4.87657 1.01886,-10.60663 0.81655,-16.44776 -0.20231,-5.84113 -0.629,-12.73732 -0.6999,-14.48803 -0.0708,-1.75069 -0.11657,-3.46669 -0.11657,-5.08599 0,-6.69667 0.0293,-10.56221 2.19301,-16.12111 1.27665,-3.28118 6.87287,-10.53012 -0.18651,-11.92173 -0.79804,1.3259 -2.20103,1.92764 -2.91624,3.26623 -0.90009,-7.1088 -0.12495,-14.25393 0.20994,-21.39376 z m -1.88975,110.77158 c -3.54171,2.51145 -0.63008,0.98434 -7.74561,4.80599 0.0142,10.33399 -0.42555,20.34708 -1.67977,29.88596 10.25035,-9.66432 10.82929,-12.59532 9.6587,-29.58266 -0.12024,-1.73649 -0.18567,-3.43252 -0.23336,-5.10929 z m 6.00088,-238.32184 c 0.65654,-5.00371 4.1288,-10.70318 2.7302,-15.75252 -2.61521,-3.66638 -6.46898,0.7055 -9.07898,0 -5.14681,-1.38936 -3.80672,-4.685457 -9.37164,-5.56415 -4.81011,-0.759253 -6.14944,-1.17212 -4.97882,9.95694 0.35088,3.33789 0.59427,6.5332 0.83913,9.70161 2.82277,-0.92948 5.57835,-1.34158 7.94718,-1.20795 4.6989,0.26495 8.61536,1.34757 11.91293,2.86607 z"
           id="path931" />
        <path
           style="color:#000000;fill:#000000;stroke-linecap:round;stroke-linejoin:round;-inkscape-stroke:none"
           d="m 263.05859,96.207031 c -1.10679,0.04013 -2.50859,0.563635 -3.25,1.683594 -0.74141,1.119959 -0.90754,2.398205 -0.94726,4.064455 -0.0397,1.66624 0.10594,3.77976 0.40234,6.59765 0.34732,3.30397 0.58902,6.48061 0.83399,9.6504 a 1.8666017,1.8666017 0 0 0 2.44336,1.6289 c 2.63569,-0.86788 5.18763,-1.23408 7.25976,-1.11719 4.47178,0.25215 8.14261,1.27264 11.23633,2.69727 a 1.8666017,1.8666017 0 0 0 2.63086,-1.45117 c 0.28495,-2.17168 1.27207,-4.79613 2.07812,-7.58399 0.80606,-2.78785 1.45515,-5.82847 0.60157,-8.91015 a 1.8666017,1.8666017 0 0 0 -0.2793,-0.58594 c -0.88148,-1.23578 -2.15089,-2.02039 -3.39453,-2.20898 -1.24365,-0.1886 -2.33421,0.0999 -3.26367,0.41406 -0.92947,0.3142 -1.74188,0.68077 -2.37305,0.88867 -0.63117,0.2079 -1.00802,0.20893 -1.08008,0.18945 a 1.8666017,1.8666017 0 0 0 -0.002,0 c -2.17552,-0.58727 -2.5813,-1.26793 -3.63086,-2.425779 -1.04956,-1.15785 -2.77516,-2.68262 -5.93555,-3.18164 -1.18997,-0.187831 -2.22329,-0.38974 -3.33008,-0.34961 z m 0.13477,3.730469 c 0.46059,-0.0167 1.3982,0.11485 2.61328,0.30664 2.40453,0.37967 2.79362,0.94279 3.75195,2 0.95833,1.05721 2.45255,2.72135 5.42383,3.52344 1.23295,0.33327 2.31546,0.0508 3.22266,-0.24805 0.9072,-0.29883 1.71326,-0.6642 2.40039,-0.89648 0.68713,-0.23229 1.21178,-0.30466 1.50781,-0.25977 0.21335,0.0324 0.42797,0.25527 0.66016,0.49414 0.40584,1.88857 0.0855,4.06549 -0.61328,6.48242 -0.54794,1.89509 -1.19307,3.89447 -1.6875,5.93555 -3.0564,-1.16254 -6.44655,-2.06065 -10.46289,-2.28711 -1.98949,-0.11223 -4.16286,0.2177 -6.37891,0.75195 -0.19436,-2.48117 -0.38087,-4.95844 -0.65625,-7.57812 -0.28891,-2.74663 -0.4153,-4.75453 -0.38281,-6.11719 0.0325,-1.36266 0.28172,-2.0207 0.33007,-2.093748 0.0484,-0.07305 -0.18911,0.003 0.27149,-0.01367 z m 3.74414,35.22461 c -0.8515,-0.13269 -1.75705,-0.008 -2.66211,0.16797 a 1.8666017,1.8666017 0 0 0 -0.0879,0.004 c -0.19545,0.0405 -0.37767,-0.0203 -0.57422,0.0371 l 0.22656,0.21875 a 1.8666017,1.8666017 0 0 0 -1.50976,1.10547 l -0.002,0.002 a 1.8666017,1.8666017 0 0 0 0.20704,0.73632 l -0.2461,-0.0137 c 0.89022,6.28352 1.57971,12.65429 1.30469,18.82031 -0.27397,6.14046 -1.25803,2.96107 -0.43555,20.22071 0.4134,8.67448 1.34011,17.39402 1.72071,23.9707 0.1903,3.28834 0.23512,6.05476 0.0469,7.88672 -0.0519,0.50496 -0.13695,0.71009 -0.21484,1.04883 -0.13789,-0.2169 -0.25351,-0.36318 -0.42578,-0.6836 -0.60354,-1.12252 -1.57414,-2.96744 -3.74414,-3.69336 a 1.8666017,1.8666017 0 0 0 -1.13477,-0.0156 c -1.81772,0.55299 -3.19113,1.17334 -4.25195,2.04101 -1.06083,0.86768 -1.7506,2.08903 -1.90821,3.30665 -0.31522,2.43523 0.8125,4.44258 1.7461,6.79101 0.74676,1.87965 0.88553,3.63441 1.15429,5.71875 0.26877,2.08435 0.70331,4.48086 2.17774,7.09961 1.85577,3.29634 3.81249,6.94083 2.98828,13.54297 a 1.8666017,1.8666017 0 0 0 3.13281,1.58984 l 14.64844,-13.81054 a 1.8666017,1.8666017 0 0 0 0.56055,-1.04297 c 0.91462,-5.34171 2.68669,-10.05369 2.08203,-17.16602 -0.0368,-0.43273 0.26759,-1.12756 0.86523,-2.32226 0.59765,-1.19471 1.36479,-2.88583 1.17188,-5.00977 -0.11524,-1.26322 -0.50419,-2.31198 -1.20117,-2.99805 -0.69699,-0.68606 -1.32196,-0.84718 -1.39258,-0.88867 -0.0706,-0.0415 0.0945,0.24587 0,-0.0996 -0.0945,-0.34548 -0.19964,-1.30186 -0.0684,-3.02539 0.12211,-1.5888 1.31732,-4.26091 1.33594,-7.15625 v -0.002 c 0.0116,-1.63167 -0.22321,-3.18956 -0.45118,-4.66211 0.0162,0.10454 -0.0311,-0.41429 -0.0508,-1.02344 -0.0197,-0.60915 -0.0377,-1.42144 -0.0508,-2.35937 -0.0261,-1.87588 -0.0372,-4.26227 -0.0391,-6.62891 -0.002,-2.36664 0.007,-4.71451 0.0234,-6.51953 0.008,-0.90251 0.0195,-1.67102 0.0312,-2.23047 0.0117,-0.55814 0.0659,-1.14845 0.0215,-0.83008 a 1.8666017,1.8666017 0 0 0 0.002,-0.002 c 0.12526,-0.89924 0.21377,-1.73764 0.35157,-2.49609 1.0581,-5.83006 1.72401,-11.21508 1.84765,-16.88086 a 1.8666017,1.8666017 0 0 0 -1.60547,-1.88868 c -2.39114,-0.33567 -5.02837,-3.07273 -7.89453,-5.95312 -1.43308,-1.4402 -2.93463,-2.87287 -4.73047,-3.86914 -0.89791,-0.49814 -1.90157,-0.87142 -2.96484,-1.03711 z m -0.54297,3.6582 c 0.55,0.0896 1.09395,0.30788 1.69727,0.64258 1.20664,0.66941 2.52575,1.8627 3.89453,3.23828 2.35462,2.36631 4.88564,5.28099 8.32422,6.47461 -0.1872,4.93599 -0.75066,9.72272 -1.69922,14.94922 -0.17145,0.94366 -0.2615,1.83165 -0.375,2.64648 -0.0749,0.5377 -0.0463,0.68476 -0.0586,1.26954 -0.0123,0.58477 -0.0228,1.36205 -0.0312,2.27343 -0.017,1.82277 -0.0272,4.18064 -0.0254,6.5586 0.002,2.37795 0.0145,4.77464 0.041,6.67773 0.0133,0.95155 0.0298,1.77731 0.0508,2.42578 0.021,0.64847 0.021,1.00658 0.0937,1.47656 0.22454,1.45044 0.41724,2.81809 0.4082,4.06446 a 1.8666017,1.8666017 0 0 0 0,0.002 c -0.0103,1.65554 -1.11868,4.21112 -1.32422,6.89844 -0.14755,1.93725 -0.10484,3.21733 0.18946,4.29297 0.2943,1.07563 1.09071,1.97074 1.70898,2.33398 0.61827,0.36324 0.73967,0.4045 0.66406,0.33008 -0.0756,-0.0744 0.0305,-0.10285 0.10157,0.67578 0.0998,1.09822 -0.24987,1.91628 -0.79297,3.00195 -0.54311,1.08568 -1.40293,2.44192 -1.24414,4.3086 0.51868,6.10098 -0.92714,10.19303 -1.91406,15.58203 l -10.97266,10.34375 c -0.30261,-4.97657 -2.07445,-8.55821 -3.55469,-11.1875 -1.16317,-2.06593 -1.47655,-3.79013 -1.72851,-5.74414 -0.25197,-1.95402 -0.40667,-4.15425 -1.38672,-6.6211 -0.97387,-2.44973 -1.60234,-4.24856 -1.51367,-4.93359 0.0443,-0.34251 0.0974,-0.5097 0.57031,-0.89648 0.36458,-0.2982 1.30421,-0.68078 2.29297,-1.04883 0.41267,0.30951 0.73417,0.75256 1.1875,1.5957 0.3065,0.57007 0.65556,1.25163 1.2539,1.91992 0.59834,0.6683 1.52218,1.2876 2.625,1.49414 a 1.8666017,1.8666017 0 0 0 0.79688,-0.0234 c 1.17986,-0.2949 1.91561,-1.26608 2.29492,-2.15625 0.37931,-0.89017 0.55635,-1.86205 0.67187,-2.98633 0.23106,-2.24857 0.15969,-5.11747 -0.0351,-8.48438 -0.38969,-6.73381 -1.31237,-15.40455 -1.71875,-23.93164 -0.81695,-17.14354 0.14387,-13.29593 0.4375,-19.87695 0.26313,-5.89963 -0.34263,-11.80698 -1.11524,-17.57227 0.0591,0.007 0.12672,-0.0232 0.18555,-0.0137 z m 12.49414,107.00391 a 1.8666017,1.8666017 0 0 0 -2.4707,0.0937 c -0.0921,0.0879 -0.12002,0.11899 -0.0957,0.0957 -2.831,2.70997 -9.76769,9.99396 -13.20704,15.12305 a 1.8666017,1.8666017 0 0 0 -0.3164,1.04883 c 0.0478,8.55951 0.1647,19.17733 0.375,25.92187 0.26057,8.35598 0.30758,8.95554 0.67773,17.10352 0.3707,8.16002 0.80357,16.39718 1.25977,24.95508 0.51303,9.62583 0.92718,19.09979 1.04687,28.34179 a 1.8666017,1.8666017 0 0 0 2.98438,1.47071 c 2.69642,-2.01608 5.56067,-4.07839 8.08008,-6.96485 a 1.8666017,1.8666017 0 0 0 0.46093,-1.18164 c 0.17772,-7.31739 1.04085,-14.37252 2.55469,-22.00781 v -0.002 c 1.01991,-5.1379 1.05373,-10.98162 0.84961,-16.875 -0.20369,-5.88107 -0.63255,-12.85185 -0.69922,-14.49805 -0.0701,-1.73394 -0.11523,-3.42759 -0.11523,-5.01172 0,-6.69122 0.007,-10.15171 2.0664,-15.44336 0.47258,-1.21459 2.28624,-3.99205 3.08985,-6.83984 0.4018,-1.4239 0.59754,-3.04162 -0.14844,-4.58399 -0.74598,-1.54237 -2.39344,-2.58944 -4.50586,-3.00586 a 1.8666017,1.8666017 0 0 0 -1.5625,0.69336 c -0.23838,-5.51973 0.0888,-11.13436 0.35938,-16.90234 a 1.8666017,1.8666017 0 0 0 -0.6836,-1.53125 z m -3.31445,6.38086 c -0.32991,5.47693 -0.64497,11.02675 0.0723,16.6914 a 1.8666017,1.8666017 0 0 0 3.4961,0.64454 c 0.17334,-0.32442 0.49778,-0.65273 1.02734,-1.12696 0.22737,-0.20361 0.51724,-0.61098 0.79102,-0.88281 0.54025,0.22123 0.85715,0.45548 0.95898,0.66602 0.15029,0.31073 0.19043,0.97092 -0.084,1.94335 -0.54882,1.94488 -2.17054,4.43342 -2.97461,6.5 -2.26773,5.82614 -2.32031,10.09477 -2.32031,16.79688 0,1.65447 0.0457,3.39467 0.11718,5.16211 0.0751,1.85522 0.4983,8.67538 0.69922,14.47656 0.20048,5.78817 0.13506,11.40474 -0.78125,16.01953 a 1.8666017,1.8666017 0 0 0 0,0.002 c -1.49199,7.52466 -2.34283,14.57921 -2.56836,21.84765 -1.29531,1.41407 -2.73554,2.667 -4.25195,3.85352 -0.16876,-8.16721 -0.46781,-16.42255 -0.91602,-24.83203 -0.45611,-8.55631 -0.88988,-16.78189 -1.25976,-24.92383 -0.37043,-8.15399 -0.41547,-8.70507 -0.67578,-17.05274 -0.2026,-6.49764 -0.31333,-16.74952 -0.36328,-25.17578 2.27925,-3.29415 5.94018,-7.36026 9.0332,-10.60937 z m 0.24219,103.96875 a 1.8666017,1.8666017 0 0 0 -1.04688,0.4414 l -0.0312,-0.0976 c -3.64421,2.58413 -0.43769,0.8643 -7.54883,4.68359 a 1.8666017,1.8666017 0 0 0 -0.98437,1.64649 c 0.0141,10.27937 -0.4245,20.21322 -1.66406,29.64062 a 1.8666017,1.8666017 0 0 0 3.13085,1.60156 c 5.18094,-4.88473 8.19004,-8.32368 9.61329,-12.84375 1.42324,-4.52006 1.2142,-9.7045 0.62695,-18.22656 -0.11768,-1.69949 -0.18119,-3.36918 -0.22852,-5.0332 l -0.0723,0.0742 a 1.8666017,1.8666017 0 0 0 -1.79297,-1.88672 z m -1.70313,5.43945 c 0.029,0.55916 0.0368,1.09495 0.0762,1.66406 0.58334,8.46527 0.67132,13.23932 -0.46484,16.84766 -0.78093,2.48014 -2.56457,4.8177 -4.99805,7.45703 0.76532,-7.66307 1.16855,-15.52425 1.1836,-23.625 2.16278,-1.16795 3.65223,-1.98007 4.20312,-2.34375 z"
           id="path933" />
      </g>
      <path
         id="path939"
         style="stroke-width:0.746564"
         d="m 286.45222,129.73053 a 3.0758474,3.2475574 0 0 1 -3.07585,3.24756 3.0758474,3.2475574 0 0 1 -3.07584,-3.24756 3.0758474,3.2475574 0 0 1 3.07584,-3.24756 3.0758474,3.2475574 0 0 1 3.07585,3.24756 z" />
    </g>
    <path
       d="M 130.69364,296.55863 V 179.91672 h 50.13261 q 16.20954,0 25.0663,9.5252 8.85676,9.5252 8.85676,25.56764 0,16.04244 -8.85676,25.56764 -8.85676,9.5252 -25.0663,9.5252 h -31.24932 v 46.45623 z m 18.88329,-63 h 30.07956 q 7.18567,0 11.19628,-3.67638 4.01061,-3.84351 4.01061,-10.86208 v -8.02122 q 0,-7.01857 -4.01061,-10.69497 -4.01061,-3.8435 -11.19628,-3.8435 h -30.07956 z"
       style="font-weight:600;font-size:148.167px;font-family:'IBM Plex Sans Thai Looped';-inkscape-font-specification:'IBM Plex Sans Thai Looped Medium';stroke-width:0.298407"
       id="path639" />
    <path
       d="m 409.49881,296.55863 -10.52785,-31.58354 h -43.61537 l -10.19363,31.58354 h -19.21749 l 39.77187,-116.64191 h 23.72943 l 39.77186,116.64191 z m -31.91776,-99.2626 h -0.83554 l -16.87798,51.4695 h 34.42438 z"
       style="font-weight:600;font-size:148.167px;font-family:'IBM Plex Sans Thai Looped';-inkscape-font-specification:'IBM Plex Sans Thai Looped Medium';stroke-width:0.298407"
       id="path636" />
    <g
       aria-label="Kohorte SoSe2020"
       id="text80"
       style="font-weight:600;font-size:42.3333px;line-height:1.25;font-family:'IBM Plex Sans Thai Looped';-inkscape-font-specification:'IBM Plex Sans Thai Looped Semi-Bold';baseline-shift:baseline;opacity:1;stroke-width:0.264583;stop-color:#000000;stop-opacity:1">
      <path
         d="m 137.30847,389.75278 -6.18009,0.0843 -6.80662,6.10594 -3.19431,-3.56087 21.99547,-19.73124 3.19431,3.56087 -11.15529,10.00696 0.11307,0.12605 6.82886,-0.43885 12.46769,-0.49262 3.73141,4.1596 -16.30336,0.46435 -5.12674,19.89714 -3.84448,-4.28565 z"
         style="font-weight:500;-inkscape-font-specification:'IBM Plex Sans Thai Looped Medium';baseline-shift:baseline;stop-color:#000000;stop-opacity:1"
         id="path745" />
      <path
         d="m 145.47654,417.79066 q -1.73662,-1.48659 -2.66074,-3.33644 -0.89197,-1.82233 -0.92538,-3.80133 -0.006,-2.01116 0.82387,-4.08714 0.85728,-2.10813 2.56411,-4.10203 1.70682,-1.99389 3.63001,-3.13387 1.95071,-1.17214 3.91119,-1.44432 1.988,-0.30433 3.92608,0.29593 1.97024,0.62779 3.70686,2.11438 1.73662,1.48659 2.62858,3.30892 0.92413,1.84986 0.93001,3.86101 0.0334,1.979 -0.82387,4.08714 -0.82975,2.07598 -2.53658,4.06987 -1.70682,1.9939 -3.65754,3.16604 -1.92318,1.13998 -3.91119,1.44431 -1.96047,0.27217 -3.93071,-0.35562 -1.93809,-0.60026 -3.6747,-2.08685 z m 2.47764,-2.89436 q 1.80094,1.54165 3.83037,1.38422 2.05695,-0.18959 3.95648,-2.4086 l 2.42259,-2.83004 q 1.89953,-2.21901 1.74211,-4.24844 -0.1299,-2.06159 -1.93084,-3.60323 -1.80093,-1.54165 -3.85789,-1.35207 -2.02943,0.15743 -3.92896,2.37644 l -2.42258,2.83005 q -1.89953,2.21901 -1.76964,4.28059 0.15743,2.02943 1.95836,3.57108 z"
         style="font-weight:500;-inkscape-font-specification:'IBM Plex Sans Thai Looped Medium';baseline-shift:baseline;stop-color:#000000;stop-opacity:1"
         id="path742" />
      <path
         d="m 174.85165,400.8389 3.85622,2.53409 -7.11405,10.82572 0.17689,0.11624 q 1.57787,-1.09066 3.43169,-1.2908 1.88919,-0.17689 4.01188,1.21803 2.83025,1.85988 3.15472,4.75786 0.38309,2.88584 -1.87201,6.31753 l -7.67202,11.67479 -3.85622,-2.53409 7.36979,-11.21488 q 2.81307,-4.28076 -0.65399,-6.55911 -0.74294,-0.48822 -1.62537,-0.76417 -0.82381,-0.28808 -1.64559,-0.2709 -0.82179,0.0172 -1.5708,0.38613 -0.71362,0.39219 -1.22509,1.17051 l -8.11374,12.34698 -3.85622,-2.53409 z"
         style="font-weight:500;-inkscape-font-specification:'IBM Plex Sans Thai Looped Medium';baseline-shift:baseline;stop-color:#000000;stop-opacity:1"
         id="path739" />
      <path
         d="m 185.94779,444.38704 q -2.05354,-1.00436 -3.41144,-2.56388 -1.31988,-1.54091 -1.84779,-3.44849 -0.50931,-1.9456 -0.22584,-4.16322 0.30208,-2.25565 1.45523,-4.61342 1.15316,-2.35778 2.72961,-3.94302 1.59505,-1.62327 3.42491,-2.3777 1.84846,-0.79245 3.87511,-0.69663 2.06467,0.11443 4.11821,1.11879 2.05355,1.00436 3.37342,2.54527 1.3579,1.55951 1.86722,3.50512 0.52791,1.90758 0.22583,4.16322 -0.28347,2.21762 -1.43663,4.5754 -1.15315,2.35777 -2.7482,3.98104 -1.57645,1.58525 -3.42491,2.3777 -1.82986,0.75442 -3.89454,0.64 -2.02664,-0.0958 -4.08019,-1.10018 z m 1.67394,-3.42258 q 2.1296,1.04156 4.05495,0.38096 1.94395,-0.69863 3.22729,-3.3226 l 1.63674,-3.34652 q 1.28335,-2.62397 0.62275,-4.54932 -0.642,-1.96338 -2.7716,-3.00494 -2.1296,-1.04156 -4.07355,-0.34293 -1.92535,0.6606 -3.2087,3.28457 l -1.63673,3.34652 q -1.28335,2.62398 -0.64135,4.58735 0.66059,1.92535 2.7902,2.96691 z"
         style="font-weight:500;-inkscape-font-specification:'IBM Plex Sans Thai Looped Medium';baseline-shift:baseline;stop-color:#000000;stop-opacity:1"
         id="path736" />
      <path
         d="m 200.09086,450.13408 7.55155,-20.67753 4.33433,1.58292 -1.45223,3.97645 0.19883,0.0726 q 1.01829,-1.43084 2.84572,-2.11549 1.82742,-0.68466 4.29282,0.21572 l 1.15317,0.42114 -1.52483,4.17527 -1.70988,-0.62445 q -2.58469,-0.94395 -4.28141,-0.61717 -1.65696,0.3413 -2.25237,1.97164 l -4.82138,13.20181 z"
         style="font-weight:500;-inkscape-font-specification:'IBM Plex Sans Thai Looped Medium';baseline-shift:baseline;stop-color:#000000;stop-opacity:1"
         id="path733" />
      <path
         d="m 221.45577,457.0919 q -2.32678,-0.63926 -3.18535,-2.1483 -0.84734,-1.54986 -0.24173,-3.75418 l 3.56641,-12.98098 -3.30648,-0.90843 0.99815,-3.63304 1.79611,0.49347 q 1.10216,0.3028 1.64495,-0.0749 0.5836,-0.36649 0.88641,-1.46864 l 1.02058,-3.71469 4.00043,1.09908 -1.59255,5.79654 4.44946,1.22245 -0.99815,3.63304 -4.44945,-1.22245 -3.83557,13.96068 4.12289,1.13273 -0.99815,3.63304 z"
         style="font-weight:500;-inkscape-font-specification:'IBM Plex Sans Thai Looped Medium';baseline-shift:baseline;stop-color:#000000;stop-opacity:1"
         id="path730" />
      <path
         d="m 238.78645,461.35107 q -2.33735,-0.39606 -4.03946,-1.50027 -1.70211,-1.10422 -2.74846,-2.78431 -1.03928,-1.72183 -1.39521,-3.92898 -0.30712,-2.24181 0.13138,-4.82959 0.43849,-2.58777 1.45993,-4.56153 1.07024,-2.00842 2.61167,-3.25002 1.5485,-1.28333 3.51936,-1.76517 1.97086,-0.48184 4.30821,-0.0858 2.37908,0.40313 4.03238,1.54201 1.69504,1.14596 2.65084,2.85364 0.96288,1.66594 1.21481,3.72666 0.29367,2.06779 -0.0883,4.32166 l -0.28997,1.71127 -14.90058,-2.52487 -0.12023,0.70955 q -0.42435,2.5043 0.76066,4.37963 1.23383,1.84066 3.98856,2.30745 2.00344,0.33948 3.52933,-0.30364 1.52588,-0.64311 2.74047,-1.98302 l 2.22569,3.08215 q -1.54989,1.79834 -4.0506,2.61976 -2.49364,0.77969 -5.54053,0.2634 z m 3.24626,-19.1579 q -1.16867,-0.19802 -2.24112,0.0496 -1.03071,0.25472 -1.86756,0.88577 -0.79512,0.63813 -1.34758,1.61794 -0.55245,0.97981 -0.76463,2.23196 l -0.0495,0.29217 10.10067,1.71153 0.0707,-0.41738 q 0.42435,-2.5043 -0.61493,-4.22613 -1.03221,-1.76356 -3.28608,-2.14548 z"
         style="font-weight:500;-inkscape-font-specification:'IBM Plex Sans Thai Looped Medium';baseline-shift:baseline;stop-color:#000000;stop-opacity:1"
         id="path727" />
      <path
         d="m 272.80449,464.04532 q -3.72515,0.0367 -6.36304,-1.29201 -2.59555,-1.32915 -4.48066,-3.59668 l 3.27138,-3.12273 q 1.58503,1.88947 3.4572,2.84473 1.91451,0.95485 4.32739,0.93106 2.83619,-0.0279 4.26293,-1.31207 1.42675,-1.28413 1.40547,-3.44302 -0.0171,-1.73558 -1.04307,-2.74152 -1.02596,-1.00593 -3.61317,-1.48846 l -2.62913,-0.43977 q -4.32572,-0.76174 -6.50464,-2.77236 -2.17892,-2.01062 -2.21396,-5.56645 -0.0192,-1.94723 0.685,-3.52058 0.7461,-1.6161 2.04794,-2.68731 1.34375,-1.11397 3.24282,-1.72538 1.89906,-0.61141 4.26961,-0.63478 3.34417,-0.033 5.81107,1.12812 2.46647,1.11874 4.22375,3.30286 l -3.31496,2.99615 q -1.15755,-1.47033 -2.81723,-2.34302 -1.65968,-0.87268 -4.11489,-0.84848 -2.53988,0.025 -3.92679,1.05475 -1.38692,1.02972 -1.36773,2.97696 0.0184,1.86257 1.17048,2.78259 1.15171,0.8777 3.56918,1.31956 l 2.62996,0.52443 q 4.45313,0.80282 6.50505,2.81469 2.09426,2.01146 2.12931,5.56728 0.0204,2.07423 -0.6825,3.77458 -0.70294,1.70034 -2.08777,2.94171 -1.34292,1.19863 -3.32581,1.89554 -1.98331,0.65458 -4.52319,0.67961 z"
         style="font-weight:500;-inkscape-font-specification:'IBM Plex Sans Thai Looped Medium';baseline-shift:baseline;stop-color:#000000;stop-opacity:1"
         id="path724" />
      <path
         d="m 297.55097,462.23341 q -2.26447,0.31299 -4.26165,-0.22294 -1.95525,-0.54172 -3.45809,-1.82975 -1.50864,-1.32997 -2.51134,-3.32816 -1.00849,-2.04014 -1.36785,-4.64008 -0.35936,-2.59995 0.0637,-4.79522 0.41728,-2.2372 1.51439,-3.88459 1.09131,-1.68933 2.8263,-2.74112 1.77693,-1.05758 4.0414,-1.37058 2.26447,-0.31299 4.21973,0.22874 1.99718,0.53593 3.50582,1.86589 1.50284,1.28803 2.51133,3.32816 1.0027,1.9982 1.36206,4.59815 0.35936,2.59994 -0.0579,4.83715 -0.42308,2.19526 -1.51439,3.88459 -1.09711,1.64739 -2.87404,2.70498 -1.735,1.05179 -3.99947,1.36478 z m -0.52165,-3.77412 q 2.34834,-0.32458 3.57704,-1.94743 1.22291,-1.66478 0.82298,-4.55827 l -0.51006,-3.69025 q -0.39994,-2.89349 -2.02279,-4.12219 -1.62864,-1.27064 -3.97698,-0.94606 -2.34834,0.32459 -3.57125,1.98937 -1.22871,1.62285 -0.82877,4.51633 l 0.51006,3.69025 q 0.39994,2.89349 2.02858,4.16413 1.62285,1.22871 3.97119,0.90412 z"
         style="font-weight:500;-inkscape-font-specification:'IBM Plex Sans Thai Looped Medium';baseline-shift:baseline;stop-color:#000000;stop-opacity:1"
         id="path721" />
      <path
         d="m 321.53351,457.3491 q -3.59477,0.97761 -6.48294,0.35919 -2.84733,-0.62953 -5.24461,-2.34661 l 2.37531,-3.84854 q 2.01135,1.42719 4.06424,1.87793 2.09375,0.43963 4.42218,-0.19359 2.73693,-0.74432 3.79254,-2.34752 1.05561,-1.6032 0.48905,-3.68653 -0.45548,-1.67484 -1.70249,-2.38861 -1.24701,-0.71377 -3.87215,-0.52631 l -2.65488,0.23942 q -4.37774,0.357 -6.99432,-1.03722 -2.61657,-1.39422 -3.54974,-4.82559 -0.51102,-1.87908 -0.22762,-3.57938 0.31315,-1.75225 1.30176,-3.11787 1.01835,-1.41759 2.70106,-2.4894 1.6827,-1.0718 3.97028,-1.69392 3.22713,-0.87762 5.90746,-0.37816 2.66923,0.45861 4.92174,2.12731 l -2.44948,3.7371 q -1.49176,-1.12979 -3.31819,-1.55437 -1.82643,-0.42459 -4.19571,0.21974 -2.45098,0.66655 -3.5324,2.01355 -1.08141,1.34699 -0.57039,3.22608 0.4888,1.79738 1.83614,2.39613 1.33624,0.55789 3.78687,0.37402 l 2.6771,-0.15773 q 4.51139,-0.34947 7.00542,1.07808 2.53487,1.41643 3.46804,4.8478 0.54435,2.00164 0.29427,3.82448 -0.25007,1.82284 -1.27595,3.37408 -0.99613,1.49929 -2.73832,2.67501 -1.75329,1.13488 -4.20427,1.80143 z"
         style="font-weight:500;-inkscape-font-specification:'IBM Plex Sans Thai Looped Medium';baseline-shift:baseline;stop-color:#000000;stop-opacity:1"
         id="path718" />
      <path
         d="m 345.01219,449.32326 q -2.18968,0.90848 -4.21838,0.87936 -2.0287,-0.0291 -3.80865,-0.89476 -1.79617,-0.90475 -3.27204,-2.58404 -1.45299,-1.73461 -2.45881,-4.1589 -1.00581,-2.42429 -1.19133,-4.63893 -0.16264,-2.26997 0.4817,-4.14143 0.62812,-1.91056 2.04036,-3.3673 1.41223,-1.45673 3.60191,-2.36521 2.22879,-0.9247 4.23461,-0.84026 2.04492,0.0682 3.76289,1.00542 1.70174,0.89809 3.01164,2.50874 1.34899,1.59442 2.22503,3.70591 l 0.66514,1.60316 -13.95924,5.79156 0.27579,0.66473 q 0.97337,2.34608 2.97462,3.30324 2.02412,0.90184 4.60482,-0.16887 1.87687,-0.7787 2.82654,-2.13519 0.94967,-1.35648 1.26498,-3.13726 l 3.52454,1.42513 q -0.35525,2.34733 -2.03537,4.37354 -1.69634,1.98709 -4.55075,3.17136 z m -7.4463,-17.94758 q -1.09484,0.45424 -1.87104,1.2346 -0.73711,0.76414 -1.10982,1.74376 -0.33362,0.96339 -0.27996,2.08693 0.0537,1.12355 0.54035,2.29659 l 0.11356,0.27371 9.46256,-3.92593 -0.16223,-0.39102 q -0.97337,-2.34609 -2.76954,-3.25083 -1.81239,-0.94385 -3.92388,-0.0678 z"
         style="font-weight:500;-inkscape-font-specification:'IBM Plex Sans Thai Looped Medium';baseline-shift:baseline;stop-color:#000000;stop-opacity:1"
         id="path715" />
      <path
         d="m 375.45068,433.04725 -17.40449,9.98637 -2.27538,-3.96558 3.9956,-12.00518 q 0.9348,-2.8791 1.05697,-5.0479 0.13783,-2.22659 -0.87345,-3.98907 l -0.27388,-0.47733 q -1.07449,-1.87264 -2.82373,-2.28435 -1.71253,-0.43279 -3.62189,0.66276 -1.06483,0.61098 -1.68302,1.40495 -0.60254,0.73618 -0.87401,1.62405 -0.27147,0.88787 -0.254,1.85398 0.0542,0.94505 0.31844,1.91599 l -4.43571,0.69046 q -0.29135,-1.44346 -0.22575,-2.9453 0.0445,-1.53857 0.60372,-3.03079 0.5592,-1.49222 1.69626,-2.82794 1.17377,-1.35679 3.11985,-2.47341 1.94607,-1.11662 3.82533,-1.41399 1.85819,-0.33409 3.47622,0.10411 1.63367,0.38041 2.98504,1.45969 1.35137,1.07927 2.29945,2.73159 0.88486,1.54217 1.16598,3.13792 0.28112,1.59575 0.11079,3.2553 -0.17034,1.65956 -0.69763,3.37751 -0.49057,1.69688 -1.10694,3.51475 l -3.05118,8.63249 12.92485,-7.41604 z"
         style="font-weight:500;-inkscape-font-specification:'IBM Plex Sans Thai Looped Medium';baseline-shift:baseline;stop-color:#000000;stop-opacity:1"
         id="path712" />
      <path
         d="m 388.04808,424.47838 q -2.18761,1.66913 -4.41938,2.09399 -2.25744,0.3912 -4.482,-0.36091 -2.22455,-0.75211 -4.44988,-2.62186 -2.22532,-1.86974 -4.43371,-4.76412 -2.18271,-2.86073 -3.39837,-5.50084 -1.24133,-2.67376 -1.37924,-5.01797 -0.13791,-2.3442 0.86127,-4.38453 0.97349,-2.07398 3.16111,-3.74311 4.37523,-3.33826 8.86772,-1.7074 4.52615,1.60519 8.91725,7.3603 4.3911,5.75511 4.74395,10.54449 0.38651,4.7637 -3.98872,8.10196 z m -2.46518,-3.23094 q 1.2116,-0.92444 1.69349,-2.03759 0.48986,-1.17249 0.33502,-2.49205 -0.15484,-1.31957 -0.86938,-2.74458 -0.74021,-1.45866 -1.92144,-3.00682 l -3.13283,-4.10599 q -1.18123,-1.54815 -2.36694,-2.61366 -1.21139,-1.09916 -2.44321,-1.597 -1.23182,-0.49784 -2.46638,-0.30136 -1.22657,0.13714 -2.43817,1.06158 -1.2116,0.92444 -1.70147,2.09693 -0.48188,1.11315 -0.32704,2.43272 0.15484,1.31956 0.89505,2.77823 0.71454,1.42501 1.89577,2.97316 l 3.13283,4.10599 q 1.18123,1.54816 2.39262,2.64732 1.18571,1.0655 2.41753,1.56334 1.23182,0.49784 2.4584,0.3607 1.23455,-0.19648 2.44615,-1.12092 z"
         style="font-weight:500;-inkscape-font-specification:'IBM Plex Sans Thai Looped Medium';baseline-shift:baseline;stop-color:#000000;stop-opacity:1"
         id="path709" />
      <path
         d="m 414.11248,400.20736 -14.23254,14.14491 -3.22289,-3.24286 0.75743,-12.62994 q 0.159,-3.02287 -0.28344,-5.14957 -0.44227,-2.18658 -1.87466,-3.62785 l -0.38794,-0.39034 q -1.52192,-1.53135 -3.31815,-1.47703 -1.7662,0.0245 -3.32758,1.57624 -0.87076,0.86541 -1.26277,1.79216 -0.39182,0.86689 -0.42462,1.79475 -0.0328,0.92786 0.23374,1.85665 0.29656,0.89894 0.80276,1.7686 l -4.1066,1.81331 q -0.65448,-1.31913 -0.97922,-2.78691 -0.35459,-1.49781 -0.20002,-3.08385 0.15457,-1.58604 0.90782,-3.17024 0.78328,-1.61403 2.37468,-3.19563 1.5914,-1.58161 3.32998,-2.35453 1.70873,-0.80295 3.38504,-0.79777 1.67649,-0.0547 3.26087,0.63869 1.58437,0.69338 2.92724,2.04457 1.25335,1.26111 1.9373,2.73001 0.68396,1.46889 0.94828,3.11609 0.26432,1.64721 0.1989,3.44306 -0.0354,1.76602 -0.16104,3.68142 l -0.71668,9.12776 10.56932,-10.50424 z"
         style="font-weight:500;-inkscape-font-specification:'IBM Plex Sans Thai Looped Medium';baseline-shift:baseline;stop-color:#000000;stop-opacity:1"
         id="path706" />
      <path
         d="m 424.06177,388.66841 q -1.6787,2.18028 -3.72338,3.1705 -2.07823,0.9644 -4.42181,0.81622 -2.34358,-0.14817 -4.97834,-1.37538 -2.63475,-1.22721 -5.51943,-3.44826 -2.85114,-2.19523 -4.71111,-4.42872 -1.89352,-2.25932 -2.63588,-4.48715 -0.74235,-2.22783 -0.30772,-4.45771 0.40108,-2.25571 2.07978,-4.43599 3.3574,-4.36056 8.11936,-3.95319 4.78779,0.37384 10.5236,4.79011 5.73582,4.41627 7.32116,8.94941 1.61117,4.4996 -1.74623,8.86016 z m -3.22011,-2.47931 q 0.92974,-1.20754 1.1058,-2.40768 0.16834,-1.25951 -0.3241,-2.4935 -0.49244,-1.23399 -1.55274,-2.42435 -1.09384,-1.2162 -2.63681,-2.4042 l -4.09221,-3.15079 q -1.54297,-1.18801 -2.96484,-1.90877 -1.45541,-0.7466 -2.77428,-0.90722 -1.31887,-0.16062 -2.45995,0.34992 -1.1488,0.45118 -2.07854,1.65872 -0.92974,1.20754 -1.09808,2.46705 -0.17606,1.20013 0.31638,2.43412 0.49244,1.23399 1.58628,2.45019 1.0603,1.19036 2.60327,2.37837 l 4.09222,3.15079 q 1.54296,1.188 2.99837,1.9346 1.42187,0.72076 2.74074,0.88139 1.31888,0.16062 2.46767,-0.29056 1.14108,-0.51054 2.07082,-1.71808 z"
         style="font-weight:500;-inkscape-font-specification:'IBM Plex Sans Thai Looped Medium';baseline-shift:baseline;stop-color:#000000;stop-opacity:1"
         id="path703" />
    </g>
    <circle
       style="fill:none;fill-rule:evenodd;stroke:none;stroke-width:0.234882"
       id="circle462"
       cx="-47.050564"
       cy="380.25781"
       r="192.60297"
       transform="matrix(-0.78858582,0.61492471,0.61492471,0.78858582,0,0)" />
  </g>
</svg>
