<?xml version="1.0" encoding="UTF-8" standalone="no"?>
<svg
   width="2048"
   height="2048"
   viewBox="0 0 541.86665 541.86668"
   version="1.1"
   id="svg8"
   inkscape:version="1.2.1 (9c6d41e410, 2022-07-14, custom)"
   sodipodi:docname="patch.svg"
   xmlns:inkscape="http://www.inkscape.org/namespaces/inkscape"
   xmlns:sodipodi="http://sodipodi.sourceforge.net/DTD/sodipodi-0.dtd"
   xmlns:xlink="http://www.w3.org/1999/xlink"
   xmlns="http://www.w3.org/2000/svg"
   xmlns:svg="http://www.w3.org/2000/svg"
   xmlns:rdf="http://www.w3.org/1999/02/22-rdf-syntax-ns#"
   xmlns:cc="http://creativecommons.org/ns#"
   xmlns:dc="http://purl.org/dc/elements/1.1/">
  <defs
     id="defs2" />
  <sodipodi:namedview
     id="base"
     pagecolor="#ffffff"
     bordercolor="#666666"
     borderopacity="1.0"
     inkscape:pageopacity="0.0"
     inkscape:pageshadow="2"
     inkscape:zoom="0.7"
     inkscape:cx="343.57143"
     inkscape:cy="1207.8571"
     inkscape:document-units="mm"
     inkscape:current-layer="g435"
     inkscape:document-rotation="0"
     showgrid="false"
     units="px"
     inkscape:window-width="3832"
     inkscape:window-height="2042"
     inkscape:window-x="0"
     inkscape:window-y="114"
     inkscape:window-maximized="0"
     inkscape:snap-text-baseline="true"
     showguides="true"
     inkscape:guide-bbox="true"
     inkscape:showpageshadow="0"
     inkscape:pagecheckerboard="1"
     inkscape:deskcolor="#d1d1d1">
    <sodipodi:guide
       position="-18.559931,100.54311"
       orientation="0,-1"
       id="guide14"
       inkscape:locked="false" />
    <sodipodi:guide
       position="499.79401,323.77474"
       orientation="0,-1"
       id="guide44"
       inkscape:locked="false" />
    <sodipodi:guide
       position="559.12783,188.53636"
       orientation="0,-1"
       id="guide467"
       inkscape:locked="false" />
  </sodipodi:namedview>
  <metadata
     id="metadata5">
    <rdf:RDF>
      <cc:Work
         rdf:about="">
        <dc:format>image/svg+xml</dc:format>
        <dc:type
           rdf:resource="http://purl.org/dc/dcmitype/StillImage" />
        <dc:title />
        <dc:creator>
          <cc:Agent>
            <dc:title>L3D &lt;l3d@c3woc.de&gt;</dc:title>
          </cc:Agent>
        </dc:creator>
        <cc:license
           rdf:resource="http://creativecommons.org/licenses/by-sa/4.0/" />
      </cc:Work>
      <cc:License
         rdf:about="http://creativecommons.org/licenses/by-sa/4.0/">
        <cc:permits
           rdf:resource="http://creativecommons.org/ns#Reproduction" />
        <cc:permits
           rdf:resource="http://creativecommons.org/ns#Distribution" />
        <cc:requires
           rdf:resource="http://creativecommons.org/ns#Notice" />
        <cc:requires
           rdf:resource="http://creativecommons.org/ns#Attribution" />
        <cc:permits
           rdf:resource="http://creativecommons.org/ns#DerivativeWorks" />
        <cc:requires
           rdf:resource="http://creativecommons.org/ns#ShareAlike" />
      </cc:License>
    </rdf:RDF>
  </metadata>
  <g
     inkscape:label="Layer 1"
     inkscape:groupmode="layer"
     id="layer1">
    <circle
       style="fill:#ffffff;fill-rule:evenodd;stroke:#e60005;stroke-width:5.29167;stroke-miterlimit:4;stroke-dasharray:none;stroke-opacity:1"
       id="path28"
       cx="270.93332"
       cy="271.4325"
       r="264.58334" />
    <circle
       style="fill:#ffffff;fill-rule:evenodd;stroke-width:0.264583"
       id="circle30"
       cx="270.93332"
       cy="271.4325"
       r="206.375" />
    <circle
       style="font-variation-settings:normal;opacity:1;fill:#ffffff;fill-opacity:1;fill-rule:evenodd;stroke:#e60005;stroke-width:5.29167;stroke-linecap:butt;stroke-linejoin:miter;stroke-miterlimit:4;stroke-dasharray:none;stroke-dashoffset:0;stroke-opacity:1;stop-color:#000000;stop-opacity:1"
       id="circle855"
       cx="270.93332"
       cy="271.4325"
       r="206.375" />
    <circle
       style="fill:none;fill-rule:evenodd;stroke:none;stroke-width:0.266429"
       id="circle857"
       cx="-327.48428"
       cy="-199.58585"
       r="218.47232"
       transform="rotate(-166.30756)" />
    <text
       xml:space="preserve"
       style="font-style:normal;font-weight:normal;font-size:50.0944px;line-height:1.25;font-family:sans-serif;fill:#000000;fill-opacity:1;stroke:none;stroke-width:0.264583"
       id="text861"
       x="9.0771284"><textPath
         xlink:href="#circle857"
         id="textPath863"
         style="font-style:normal;font-variant:normal;font-weight:600;font-stretch:normal;font-size:50.0944px;font-family:'IBM Plex Sans Thai Looped';-inkscape-font-specification:'IBM Plex Sans Thai Looped Semi-Bold'">Phy­si­ci­an As­sis­tant B.Sc.</textPath></text>
    <circle
       style="fill:none;fill-rule:evenodd;stroke:none;stroke-width:0.313902"
       id="circle16"
       cx="25.137768"
       cy="382.68597"
       r="257.40009"
       transform="matrix(-0.65992958,0.75132746,0.75132746,0.65992958,0,0)" />
    <text
       xml:space="preserve"
       style="font-style:normal;font-variant:normal;font-weight:600;font-stretch:normal;font-size:50.0944px;line-height:1.25;font-family:'IBM Plex Sans Thai Looped';-inkscape-font-specification:'IBM Plex Sans Thai Looped Semi-Bold';font-variant-ligatures:normal;font-variant-position:normal;font-variant-caps:normal;font-variant-numeric:normal;font-variant-alternates:normal;font-variant-east-asian:normal;font-feature-settings:normal;font-variation-settings:normal;text-indent:0;text-align:start;text-decoration:none;text-decoration-line:none;text-decoration-style:solid;text-decoration-color:#000000;letter-spacing:normal;word-spacing:normal;text-transform:none;writing-mode:lr-tb;direction:ltr;text-orientation:mixed;dominant-baseline:auto;baseline-shift:baseline;text-anchor:start;white-space:normal;shape-padding:0;shape-margin:0;inline-size:0;opacity:1;vector-effect:none;fill:#000000;fill-opacity:1;stroke:none;stroke-width:0.264583;stroke-linecap:butt;stroke-linejoin:miter;stroke-miterlimit:4;stroke-dasharray:none;stroke-dashoffset:0;stroke-opacity:1;stop-color:#000000;stop-opacity:1"
       id="text20"
       transform="translate(0,-1.0583333)"><textPath
         xlink:href="#circle16"
         id="textPath22"><tspan
           id="tspan18"
           style="font-style:normal;font-variant:normal;font-weight:600;font-stretch:normal;font-size:50.0944px;line-height:1.25;font-family:'IBM Plex Sans Thai Looped';-inkscape-font-specification:'IBM Plex Sans Thai Looped Semi-Bold';font-variant-ligatures:normal;font-variant-position:normal;font-variant-caps:normal;font-variant-numeric:normal;font-variant-alternates:normal;font-variant-east-asian:normal;font-feature-settings:normal;font-variation-settings:normal;text-indent:0;text-align:start;text-decoration:none;text-decoration-line:none;text-decoration-style:solid;text-decoration-color:#000000;letter-spacing:normal;word-spacing:normal;text-transform:none;writing-mode:lr-tb;direction:ltr;text-orientation:mixed;dominant-baseline:auto;baseline-shift:baseline;text-anchor:start;white-space:normal;shape-padding:0;shape-margin:0;inline-size:0;vector-effect:none;fill:#000000;fill-opacity:1;stroke:none;stroke-width:0.264583;stroke-linecap:butt;stroke-linejoin:miter;stroke-miterlimit:4;stroke-dasharray:none;stroke-dashoffset:0;stroke-opacity:1;stop-color:#000000;stop-opacity:1">Arztassistent*in</tspan></textPath></text>
    <g
       id="g435"
       transform="matrix(1.1136459,0,0,1.1136459,-30.790308,-11.145045)">
      <path
         fill="none"
         stroke="#000000"
         stroke-linecap="round"
         stroke-linejoin="round"
         stroke-width="3.73283"
         d="m 261.95932,118.06545 c -9.0275,2.97205 -18.76754,11.37502 -18.99075,25.42984 -0.18736,11.7554 11.5988,25.12659 22.04697,32.8722 -0.81972,-17.20159 0.1597,-13.67988 0.44329,-20.0406 -3.8463,-3.33044 -6.36709,-6.53244 -6.67242,-9.892 -0.34343,-3.76717 1.61946,-7.99086 5.34259,-9.28539 0.60847,-0.2119 1.25872,-0.33222 1.95974,-0.37327 4.29919,0.78152 7.29162,4.73689 10.24192,7.65227 1.84015,1.42561 3.82687,2.69009 5.92585,3.42953 1.58052,0.55694 3.23098,0.84195 4.92269,0.62994 3.1968,-0.40017 3.31288,-0.59784 3.31288,-5.57592 3.22068,0.29267 5.75004,3.38921 6.06584,-4.68935 0.17832,-4.56898 -3.44988,-13.30025 -14.74466,-18.50083 -6.30464,-3.17891 -13.13509,-3.1567 -19.85394,-1.65642 z m 18.12751,48.96998 c -0.11932,0.85705 -0.15632,18.67216 0.07,20.13392 4.65484,4.45475 8.49219,10.5818 8.49219,19.59733 0,11.72033 -4.79333,17.73503 -10.87186,23.37683 -5.12014,4.43653 -9.98751,9.12982 -14.65131,14.04473 -9.75912,10.42879 -17.93305,21.61923 -17.52095,35.48519 0.40162,13.50834 10.08794,19.94131 20.11057,25.45321 -0.37027,-8.151 -0.41601,-8.72586 -0.67657,-17.0777 -3.87391,-3.58351 -6.05836,-6.93783 -5.9725,-11.01182 0.10519,-4.93853 2.33487,-9.96552 5.55255,-14.79133 3.74533,-5.44795 8.40346,-10.16117 12.99492,-14.88464 2.4551,-2.3621 4.98474,-4.6451 7.5123,-6.92904 9.07895,-8.19952 18.21004,-21.36315 18.45416,-36.88497 0.28133,-17.99 -12.36816,-28.70042 -23.49347,-36.51171 z m -1.56311,131.48876 c 0.0708,1.75071 0.49756,8.64691 0.69991,14.48804 17.27264,11.71997 6.69883,27.19769 -3.40622,38.77468 -2.27034,2.58422 -5.05211,4.64384 -7.79226,6.69578 -8.84844,6.61583 -19.14332,10.65818 -29.74597,13.46148 13.11791,-1.67453 22.67711,-5.27707 29.79262,-9.09876 2.8465,-1.22008 5.26957,-3.01334 7.74561,-4.80599 3.54171,-2.51146 6.15339,-4.8077 8.14224,-6.32248 6.14945,-4.68618 16.04228,-15.35246 14.65131,-25.17325 -2.02651,-14.40398 -10.75422,-21.02827 -20.08724,-28.0195 z"
         id="path2"
         style="fill:#ffd700;fill-opacity:1" />
      <path
         fill="none"
         stroke="#000000"
         stroke-linecap="round"
         stroke-linejoin="round"
         stroke-width="3.73283"
         d="m 280.08403,167.0289 c -0.11932,0.85704 -0.15829,18.67606 0.068,20.13783 0.2263,1.4618 0.43899,2.92504 0.42855,4.36443 -0.0142,2.27627 -1.16613,4.89074 -1.32966,7.0289 -0.55767,7.32158 2.29046,3.23787 2.66301,7.32158 0.29266,3.22216 -2.23297,5.02214 -2.03737,7.32156 0.57263,6.73552 -1.11388,11.15144 -2.06276,16.69319 l -14.64907,13.80922 c 0.88317,-7.07445 -1.3319,-11.34631 -3.214,-14.68942 -2.6376,-4.68468 -1.49686,-8.24582 -3.22367,-12.59232 -1.90746,-4.79817 -3.51407,-7.61496 3.22217,-9.66427 2.91461,0.975 2.50923,4.75413 5.27152,5.27148 3.50364,-0.8757 0.62113,-18.45808 -0.19865,-35.65967 -0.81972,-17.20161 0.15294,-13.68752 0.43674,-20.04826 0.2837,-6.36073 -0.42554,-12.84092 -1.32141,-19.16433 l -7.7e-4,0.003 c 7.06615,-2.06219 11.34997,9.75604 18.13109,10.70798 -0.12102,5.54549 -0.77269,10.82071 -1.81939,16.58794 -0.15462,0.85106 -0.24492,1.71411 -0.3643,2.57115 z m -2.37687,80.23894 c -0.033,0.0315 -0.0603,0.0617 -0.0934,0.0934 -2.71142,2.5955 -9.71123,9.98731 -12.94825,14.81467 0.0478,8.55122 0.16423,19.16835 0.37329,25.87313 0.26044,8.35183 0.30629,8.9267 0.67658,17.07769 0.37029,8.15099 0.80365,16.3828 1.25981,24.93991 0.51365,9.63743 0.92968,19.13486 1.04988,28.41615 2.71149,-2.02734 5.44669,-4.00849 7.79225,-6.69577 0.18059,-7.43579 1.05919,-14.60819 2.58967,-22.32694 0.96829,-4.87657 1.01886,-10.60663 0.81655,-16.44776 -0.20231,-5.84113 -0.629,-12.73732 -0.6999,-14.48803 -0.0708,-1.75069 -0.11657,-3.46669 -0.11657,-5.08599 0,-6.69667 0.0293,-10.56221 2.19301,-16.12111 1.27665,-3.28118 6.87287,-10.53012 -0.18651,-11.92173 -0.79804,1.3259 -2.20103,1.92764 -2.91624,3.26623 -0.90009,-7.1088 -0.12495,-14.25393 0.20994,-21.39376 z m -1.88975,110.77158 c -3.54171,2.51145 -0.63008,0.98434 -7.74561,4.80599 0.0142,10.33399 -0.42555,20.34708 -1.67977,29.88596 10.25035,-9.66432 10.82929,-12.59532 9.6587,-29.58266 -0.12024,-1.73649 -0.18567,-3.43252 -0.23336,-5.10929 z m 6.00088,-238.32184 c 0.65654,-5.00371 4.1288,-10.70318 2.7302,-15.75252 -2.61521,-3.66638 -6.46898,0.7055 -9.07898,0 -5.14681,-1.38936 -3.80672,-4.685457 -9.37164,-5.56415 -4.81011,-0.759253 -6.14944,-1.17212 -4.97882,9.95694 0.35088,3.33789 0.59427,6.5332 0.83913,9.70161 2.82277,-0.92948 5.57835,-1.34158 7.94718,-1.20795 4.6989,0.26495 8.61536,1.34757 11.91293,2.86607 z"
         id="path4"
         style="fill:#000000;stroke:#000000" />
      <ellipse
         cx="283.37637"
         cy="129.73053"
         rx="3.0758474"
         ry="3.2475574"
         id="ellipse6"
         style="stroke-width:0.746564" />
    </g>
    <text
       xml:space="preserve"
       style="font-style:normal;font-variant:normal;font-weight:600;font-stretch:normal;font-size:148.167px;line-height:1.25;font-family:'IBM Plex Sans Thai Looped';-inkscape-font-specification:'IBM Plex Sans Thai Looped Semi-Bold';font-variant-ligatures:normal;font-variant-position:normal;font-variant-caps:normal;font-variant-numeric:normal;font-variant-alternates:normal;font-variant-east-asian:normal;font-feature-settings:normal;font-variation-settings:normal;text-indent:0;text-align:start;text-decoration:none;text-decoration-line:none;text-decoration-style:solid;text-decoration-color:#000000;letter-spacing:normal;word-spacing:normal;text-transform:none;writing-mode:lr-tb;direction:ltr;text-orientation:mixed;dominant-baseline:auto;baseline-shift:baseline;text-anchor:start;white-space:normal;shape-padding:0;shape-margin:0;inline-size:0;opacity:1;vector-effect:none;fill:#000000;fill-opacity:1;stroke:none;stroke-width:0.264583;stroke-linecap:butt;stroke-linejoin:miter;stroke-miterlimit:4;stroke-dasharray:none;stroke-dashoffset:0;stroke-opacity:1;stop-color:#000000;stop-opacity:1"
       x="139.50334"
       y="264.18225"
       id="text53"
       transform="translate(-25.418963,23.866693)"><tspan
         sodipodi:role="line"
         id="tspan51"
         x="139.50334"
         y="264.18225"
         style="font-style:normal;font-variant:normal;font-weight:500;font-stretch:normal;font-size:148.167px;line-height:1.25;font-family:'IBM Plex Sans Thai Looped';-inkscape-font-specification:'IBM Plex Sans Thai Looped Medium';font-variant-ligatures:normal;font-variant-position:normal;font-variant-caps:normal;font-variant-numeric:normal;font-variant-alternates:normal;font-variant-east-asian:normal;font-feature-settings:normal;text-indent:0;text-align:start;text-decoration:none;text-decoration-line:none;text-decoration-style:solid;text-decoration-color:#000000;letter-spacing:normal;word-spacing:normal;text-transform:none;writing-mode:lr-tb;direction:ltr;text-orientation:mixed;dominant-baseline:auto;baseline-shift:baseline;text-anchor:start;white-space:normal;shape-padding:0;shape-margin:0;inline-size:0;vector-effect:none;fill:#000000;fill-opacity:1;stroke:none;stroke-width:0.264583;stroke-linecap:butt;stroke-linejoin:miter;stroke-miterlimit:4;stroke-dasharray:none;stroke-dashoffset:0;stroke-opacity:1;stop-color:#000000;stop-opacity:1">P <tspan
   style="font-size:35.2778px"
   id="tspan412"> </tspan>  A</tspan></text>
    <text
       xml:space="preserve"
       style="font-style:normal;font-variant:normal;font-weight:600;font-stretch:normal;font-size:42.3333px;line-height:1.25;font-family:'IBM Plex Sans Thai Looped';-inkscape-font-specification:'IBM Plex Sans Thai Looped Semi-Bold';font-variant-ligatures:normal;font-variant-position:normal;font-variant-caps:normal;font-variant-numeric:normal;font-variant-alternates:normal;font-variant-east-asian:normal;font-feature-settings:normal;font-variation-settings:normal;text-indent:0;text-align:start;text-decoration:none;text-decoration-line:none;text-decoration-style:solid;text-decoration-color:#000000;letter-spacing:normal;word-spacing:normal;text-transform:none;writing-mode:lr-tb;direction:ltr;text-orientation:mixed;dominant-baseline:auto;baseline-shift:baseline;text-anchor:start;white-space:normal;shape-padding:0;shape-margin:0;opacity:1;fill:#000000;fill-opacity:1;stroke:none;stroke-width:0.264583;stroke-linecap:butt;stroke-linejoin:miter;stroke-miterlimit:4;stroke-dasharray:none;stroke-dashoffset:0;stroke-opacity:1;stop-color:#000000;stop-opacity:1"
       id="text80"><textPath
         xlink:href="#circle462"
         id="textPath464"
         style="font-style:normal;font-variant:normal;font-weight:500;font-stretch:normal;font-size:42.3333px;line-height:1.25;font-family:'IBM Plex Sans Thai Looped';-inkscape-font-specification:'IBM Plex Sans Thai Looped Medium';font-variant-ligatures:normal;font-variant-position:normal;font-variant-caps:normal;font-variant-numeric:normal;font-variant-alternates:normal;font-variant-east-asian:normal;font-feature-settings:normal;text-indent:0;text-align:start;text-decoration:none;text-decoration-line:none;text-decoration-style:solid;text-decoration-color:#000000;letter-spacing:normal;word-spacing:normal;text-transform:none;writing-mode:lr-tb;direction:ltr;text-orientation:mixed;dominant-baseline:auto;baseline-shift:baseline;text-anchor:start;white-space:normal;shape-padding:0;shape-margin:0;inline-size:0;fill:#000000;fill-opacity:1;stroke:none;stroke-width:0.264583;stroke-linecap:butt;stroke-linejoin:miter;stroke-miterlimit:4;stroke-dasharray:none;stroke-dashoffset:0;stroke-opacity:1;stop-color:#000000;stop-opacity:1">Kohorte SoSe2020</textPath></text>
    <circle
       style="fill:none;fill-rule:evenodd;stroke:none;stroke-width:0.234882"
       id="circle462"
       cx="-47.050564"
       cy="380.25781"
       r="192.60297"
       transform="matrix(-0.78858582,0.61492471,0.61492471,0.78858582,0,0)" />
  </g>
</svg>
